<?xml version="1.0" encoding="utf-8"?>
<!-- Generator: Adobe Illustrator 18.1.1, SVG Export Plug-In . SVG Version: 6.00 Build 0)  -->
<svg version="1.1" id="Capa_1" xmlns="http://www.w3.org/2000/svg" xmlns:xlink="http://www.w3.org/1999/xlink" x="0px" y="0px"
	 viewBox="359.1 442.3 24 24" enable-background="new 359.1 442.3 24 24" xml:space="preserve">
<g>
	<path fill="#FFFFFF" d="M371.2,447.4c0.3,0,0.6,0.2,0.6,0.5l0,0.1v1.2c0,0.3-0.3,0.6-0.6,0.6c-0.3,0-0.6-0.2-0.6-0.5l0-0.1V448
		C370.6,447.6,370.8,447.4,371.2,447.4z M371.2,452.1c0.3,0,0.6,0.3,0.6,0.6v8.2c0,0.3-0.3,0.6-0.6,0.6s-0.6-0.3-0.6-0.6v-8.2
		C370.6,452.3,370.8,452.1,371.2,452.1z M371.2,443.9c-5.8,0-10.6,4.7-10.6,10.5c0,5.8,4.7,10.5,10.6,10.5c5.8,0,10.6-4.7,10.6-10.5
		C381.7,448.6,377,443.9,371.2,443.9z M371.2,442.7c6.5,0,11.7,5.2,11.7,11.7c0,6.4-5.3,11.7-11.7,11.7s-11.7-5.2-11.7-11.7
		C359.4,447.9,364.7,442.7,371.2,442.7z"/>
</g>
</svg>
