<?xml version="1.0" encoding="utf-8"?>
<!-- Generator: Adobe Illustrator 18.1.1, SVG Export Plug-In . SVG Version: 6.00 Build 0)  -->
<svg version="1.1" id="Layer_1" xmlns="http://www.w3.org/2000/svg" xmlns:xlink="http://www.w3.org/1999/xlink" x="0px" y="0px"
	 viewBox="146 240 850.3 255.6" enable-background="new 146 240 850.3 255.6" xml:space="preserve">
<g id="组_1" transform="translate(-406 -412)">
	<g id="appgallery-White-01" transform="translate(406 412.37)">
		<path id="路径_1" d="M936.4,240.1H199.1c-1.9,0-3.8,0-5.8,0.1c-4.2,0.1-8.4,0.4-12.6,1.1c-4.2,0.7-8.2,2.1-12,4
			c-3.8,1.9-7.2,4.4-10.2,7.4c-3,3-5.5,6.4-7.4,10.2c-1.9,3.8-3.2,7.8-3.9,12c-0.7,4.1-1,8.3-1.1,12.5c-0.1,1.9-0.1,3.9-0.1,5.8
			v148.8c0,2,0,3.8,0.1,5.8c0,4.2,0.4,8.4,1.1,12.6c0.7,4.2,2,8.2,3.9,12c1.9,3.8,4.4,7.2,7.4,10.2c3,3,6.4,5.5,10.2,7.4
			c3.8,1.9,7.8,3.3,12,4c4.2,0.7,8.4,1.1,12.6,1.1c1.9,0,3.9,0.1,5.8,0.1h744c1.9,0,3.9,0,5.8-0.1c4.2,0,8.4-0.4,12.6-1.1
			c4.2-0.7,8.2-2.1,12-4c3.8-1.9,7.2-4.4,10.2-7.4c3-3,5.5-6.4,7.4-10.2c1.9-3.8,3.2-7.8,3.9-12c0.7-4.2,1.1-8.4,1.2-12.6V287.5
			c-0.1-4.2-0.5-8.4-1.2-12.6c-0.7-4.2-2-8.2-3.9-12c-3.9-7.6-10-13.7-17.6-17.6c-3.8-1.9-7.8-3.2-12-4c-4.2-0.7-8.4-1.1-12.6-1.1
			c-1.9,0-3.9-0.1-5.8-0.1L936.4,240.1L936.4,240.1z"/>
		<path id="路径_2" fill="#FFFFFF" d="M199.2,489.7c-1.9,0-3.8,0-5.7-0.1c-3.9,0-7.9-0.4-11.8-1c-3.6-0.6-7.1-1.8-10.4-3.4
			c-3.3-1.6-6.2-3.8-8.8-6.4c-2.6-2.6-4.8-5.5-6.4-8.8c-1.7-3.3-2.8-6.8-3.4-10.4c-0.6-3.9-1-7.8-1-11.8c0-1.3-0.1-5.8-0.1-5.8
			V293.3c0,0,0-4.4,0.1-5.6c0-3.9,0.4-7.9,1-11.8c0.6-3.6,1.8-7.2,3.4-10.5c1.6-3.3,3.8-6.2,6.4-8.8c2.6-2.6,5.6-4.8,8.8-6.4
			c3.3-1.7,6.8-2.8,10.4-3.4c3.9-0.6,7.9-1,11.8-1l5.7-0.1h744l5.8,0.1c3.9,0,7.8,0.4,11.7,1c3.7,0.6,7.2,1.8,10.5,3.4
			c6.5,3.4,11.8,8.7,15.2,15.2c1.6,3.3,2.8,6.8,3.4,10.4c0.6,3.9,1,7.9,1.1,11.9v160.1c-0.1,3.9-0.4,7.8-1.1,11.7
			c-0.6,3.7-1.7,7.2-3.4,10.5c-1.7,3.2-3.8,6.2-6.4,8.7c-2.6,2.6-5.5,4.8-8.8,6.4c-3.3,1.7-6.8,2.8-10.5,3.5c-3.9,0.6-7.8,1-11.8,1
			c-1.8,0-3.8,0.1-5.7,0.1h-6.8L199.2,489.7z"/>
		<path id="路径_3" d="M461.4,412.5h-29.5l-7.2,19.7h-13l28.9-73.7h12.3l29.6,73.7h-13.6L461.4,412.5z M435.6,402.5h22l-7.9-21.1
			c-1.1-2.9-2.1-6.1-3.2-9.7c-1,3.1-2,6.3-3.1,9.6L435.6,402.5z"/>
		<path id="路径_4" d="M488.3,390.8c0-4.1-0.1-8.5-0.4-13.4h11.8c0.4,2.3,0.8,4.7,0.9,7c4.9-5.3,10.5-8,16.8-8
			c7.7-0.1,14.7,4.4,17.7,11.5c1.9,4,2.9,9.1,2.9,15.2c0.2,5.7-1,11.3-3.3,16.4c-2,4.3-5.2,7.9-9.2,10.3c-4.1,2.4-8.9,3.6-13.6,3.5
			c-3.7,0-7.5-0.6-11-1.9v22.7l-12.6,1.1L488.3,390.8z M521.3,418.8c2.6-3.4,3.8-8.5,3.8-15.1c0-6.1-1-10.6-3.2-13.4
			c-2-2.7-5.1-4.2-8.5-4.1c-2.4,0-4.7,0.6-6.8,1.7c-2.2,1.2-4.2,2.8-5.9,4.6V422c1.4,0.7,2.9,1.1,4.4,1.5c1.6,0.4,3.3,0.5,4.9,0.5
			C515,424,518.8,422.3,521.3,418.8L521.3,418.8z"/>
		<path id="路径_5" d="M546,390.8c0-4.1-0.1-8.5-0.4-13.4h11.8c0.4,2.3,0.7,4.7,0.9,7c4.9-5.3,10.5-8,16.8-8
			c7.7-0.1,14.7,4.4,17.7,11.5c1.9,4,2.9,9.1,2.9,15.2c0.2,5.7-1,11.3-3.3,16.4c-2,4.3-5.2,7.9-9.2,10.3c-4.1,2.4-8.9,3.6-13.6,3.5
			c-3.7,0-7.5-0.6-11-1.9v22.7l-12.6,1V390.8z M579,418.8c2.6-3.4,3.8-8.5,3.8-15.1c0-6.1-1.1-10.6-3.2-13.4c-2-2.7-5.1-4.2-8.5-4.1
			c-2.4,0-4.7,0.6-6.8,1.7c-2.2,1.2-4.2,2.8-5.9,4.6V422c1.4,0.7,2.9,1.1,4.4,1.5c1.6,0.4,3.3,0.5,4.9,0.5
			C572.8,424,576.5,422.3,579,418.8L579,418.8z"/>
		<path id="路径_6" d="M619.4,428.8c-5.4-2.9-9.7-7.4-12.5-12.9c-2.9-5.6-4.4-12.2-4.4-19.9c0-8.3,1.7-15.3,5-21.1
			c3.2-5.6,8-10.1,13.7-13c6.1-3,12.7-4.5,19.5-4.4c4.1,0,8.2,0.5,12.2,1.4c3.7,0.9,7.3,2.2,10.8,3.8l-3.2,9.7
			c-5.9-3-12.5-4.6-19.1-4.8c-4.7-0.1-9.3,1-13.5,3.3c-3.9,2.2-7,5.6-9,9.6c-2.3,4.8-3.3,10.1-3.2,15.4c-0.1,4.8,0.7,9.5,2.5,14
			c1.5,3.9,4.3,7.3,7.8,9.7c3.5,2.4,8,3.6,13.4,3.6c2.5,0,4.9-0.2,7.3-0.6c2.3-0.4,4.6-1,6.9-1.8v-15h-17v-9.8h29.3v31
			c-4.2,2-8.7,3.5-13.3,4.5c-4.5,1-9.2,1.6-13.8,1.6C631.3,433.3,624.9,431.8,619.4,428.8z"/>
		<path id="路径_7" d="M711,432.3c-0.5-2.4-0.8-4.8-0.9-7.3c-2.1,2.4-4.7,4.4-7.6,5.9c-3.3,1.6-6.9,2.5-10.5,2.4
			c-3,0-5.9-0.6-8.6-1.9c-2.6-1.2-4.7-3.2-6.2-5.6c-1.6-2.8-2.4-5.9-2.3-9.1c-0.2-4.9,1.9-9.6,5.8-12.8c3.8-3.2,10.2-4.8,19.2-4.8
			c3.3,0,6.7,0.2,10,0.7v-1.1c0-4.8-1-8.3-3.1-10.3s-5-3-8.9-3c-2.9,0-5.8,0.4-8.6,1.2c-2.7,0.7-5.4,1.6-8,2.8l-2-9.2
			c2.9-1.2,5.8-2.2,8.9-2.8c3.8-0.9,7.7-1.3,11.6-1.3c4.1-0.1,8.3,0.6,12.1,2.2c3.4,1.5,6.1,4.1,7.8,7.4c1.9,3.5,2.8,8.2,2.8,14.2
			v21.8c0,2.3,0.1,5.7,0.4,10.3L711,432.3z M703.5,422.1c2.4-1.1,4.6-2.7,6.4-4.7v-10.2c-2.8-0.3-5.6-0.5-8.4-0.6
			c-5.2,0-8.8,0.8-10.8,2.5c-2,1.7-3.1,4.2-3,6.8c0,2.7,0.7,4.7,2.2,6c1.6,1.4,3.7,2.1,5.9,2C698.5,423.9,701.1,423.3,703.5,422.1
			L703.5,422.1z"/>
		<path id="路径_8" d="M733.4,419.1v-64.9l12.5-1v63.6c0,2.3,0.4,4,1.2,5c1,1,2.4,1.6,3.8,1.5c1.1-0.1,2.2-0.2,3.3-0.6l1.5,9
			c-1.4,0.5-2.9,0.9-4.3,1.1c-1.6,0.3-3.2,0.4-4.9,0.4C737.8,433.3,733.4,428.5,733.4,419.1z"/>
		<path id="路径_9" d="M764.7,419.1v-64.9l12.5-1v63.6c0,2.3,0.4,4,1.2,5c1,1,2.4,1.6,3.8,1.5c1.1-0.1,2.2-0.2,3.3-0.6l1.5,9
			c-1.4,0.5-2.9,0.9-4.4,1.1c-1.6,0.3-3.2,0.4-4.9,0.4C769.1,433.3,764.7,428.5,764.7,419.1z"/>
		<path id="路径_10" d="M839.1,406.4h-35.9c0.6,11.5,6,17.3,16.4,17.3c2.7,0,5.3-0.3,7.9-0.9c2.7-0.6,5.2-1.5,7.8-2.5l2.7,8.6
			c-6.5,3.1-13.6,4.6-20.7,4.5c-5.8,0-10.8-1.1-14.8-3.3c-3.9-2.1-7.1-5.5-9-9.5c-2.1-4.7-3.2-9.8-3-15c-0.1-5.4,1-10.8,3.2-15.7
			c1.9-4.1,5-7.6,8.9-10c4-2.4,8.6-3.6,13.2-3.5c4.6-0.2,9.2,1.1,13,3.6c3.5,2.4,6.1,5.8,7.7,9.7c1.7,4.2,2.5,8.8,2.5,13.4V406.4z
			 M826.8,398.4c-0.2-4.4-1.3-7.7-3.3-9.8c-2-2.2-4.9-3.4-7.9-3.3c-3-0.1-5.9,1.1-8,3.3c-2.1,2.2-3.5,5.5-4.2,9.8H826.8z"/>
		<path id="路径_11" d="M849.2,391.1c0-3-0.1-7.6-0.4-13.8h11.8c0.2,1.5,0.4,3.4,0.6,5.5s0.3,3.8,0.4,5.2c1.3-2.1,2.7-4.2,4.3-6.1
			c1.4-1.6,3.1-3,4.9-4c2-1.1,4.2-1.6,6.4-1.6c1.7,0,3.4,0.2,5,0.6l-1.6,10.9c-1.3-0.4-2.7-0.6-4.1-0.6c-2.8-0.1-5.5,0.7-7.7,2.3
			c-2.8,2.1-5.1,4.6-7.1,7.5v35.3h-12.5V391.1z"/>
		<path id="路径_12" d="M889.8,454.7c-1.5-0.2-3.1-0.6-4.5-1.1l2.3-9.2c1.1,0.3,2.1,0.5,3.2,0.7c1.2,0.2,2.4,0.3,3.7,0.3
			c5.6,0,9.7-3.6,12.5-10.7l0.8-2l-20.2-55.4h13.5l10.2,30.9c1.3,4,2.4,8,3.2,12.2c0.9-4,2.1-8,3.4-11.9l10.3-31.2h12.7L920.5,433
			c-1.5,4.5-3.6,8.8-6.2,12.7c-2,3-4.6,5.5-7.8,7.2c-3.4,1.6-7.1,2.4-10.9,2.3C893.7,455.2,891.7,455.1,889.8,454.7L889.8,454.7z"/>
		<g id="形状_1_拷贝_25">
			<path id="路径_13" fill="#C8102E" d="M318.4,286.5h-71c-33.4,0-45.6,12.2-45.6,45.7v71c0,33.4,12.2,45.7,45.7,45.7h71
				c33.4,0,45.7-12.2,45.7-45.7v-71C364,298.7,351.8,286.5,318.4,286.5z"/>
		</g>
		<path id="路径_14" fill="#FFFFFF" d="M233.9,367.7h4.3v21.2h-4.3v-8.6h-9.7v8.6h-4.3v-21.2h4.3v8.6h9.7V367.7z M258.1,379.8
			c0,3.4-1.7,5.3-4.8,5.3c-3.1,0-4.9-1.9-4.9-5.4v-12h-4.3v12.2c0,6,3.3,9.4,9.1,9.4c5.8,0,9.2-3.5,9.2-9.6v-12h-4.3V379.8z
			 M307.9,382.3l-4.8-14.6h-3.5l-4.8,14.6l-4.7-14.6h-4.6l7.4,21.2h3.6l4.8-13.9l4.8,13.9h3.6l7.4-21.2h-4.5L307.9,382.3z
			 M324.7,379.7h7.8v-3.9h-7.8v-4.3h11.4v-3.9h-15.6v21.2h16V385h-11.8V379.7z M341.7,388.9h4.3v-21.2h-4.3V388.9z M270.9,384.5
			l-1.9,4.4h-4.4l9.3-21.2h3.8l9.3,21.2h-4.5l-1.9-4.4H270.9z M272.5,380.6h6.5l-3.2-7.6L272.5,380.6z"/>
		<path id="路径_15" fill="#FFFFFF" d="M282.9,340.6c-14.9,0-27-12.1-27-27h3.8c-0.2,12.8,10,23.4,22.9,23.5
			c12.8,0.2,23.4-10,23.5-22.9c0-0.2,0-0.5,0-0.7h3.8C309.9,328.6,297.8,340.6,282.9,340.6C282.9,340.6,282.9,340.6,282.9,340.6z"/>
		<path id="路径_16" d="M411.6,286.8h22.7l-0.6,5.5h-15.4v10.6h14.5v5.1h-14.5v11.8h16.2l-0.5,5.5h-22.3V286.8z"/>
		<path id="路径_17" d="M449.7,305.7l-12-18.9h7.5l8.1,13.9l8.6-13.9h7.3l-11.9,18.6l12.8,19.9h-7.7l-9.2-15.1l-9.3,15.1h-7.3
			L449.7,305.7z"/>
		<path id="路径_18" d="M474.9,286.8h10.4c4.9,0,8.6,1,11.2,3s3.9,4.9,3.9,8.6c0.1,2.3-0.5,4.7-1.7,6.7c-1.2,1.9-2.8,3.4-4.9,4.4
			c-2.2,1-4.7,1.6-7.2,1.5c-1.7,0-3.4-0.2-5-0.5v14.8h-6.6L474.9,286.8z M491.6,304c1.5-1.4,2.3-3.4,2.1-5.4c0-2.4-0.7-4.1-2.2-5.1
			c-1.9-1.2-4.1-1.7-6.4-1.6h-3.6v13.7c1.3,0.2,2.5,0.4,3.8,0.4C488.1,305.9,490.2,305.3,491.6,304z"/>
		<path id="路径_19" d="M506.7,286.8h6.7v32.8h15.9l-0.5,5.7h-22L506.7,286.8z"/>
		<path id="路径_20" d="M541.4,323.4c-2.8-1.6-5-3.9-6.5-6.8c-1.5-3.2-2.3-6.6-2.2-10.2c-0.1-3.7,0.7-7.3,2.4-10.6
			c1.5-3,3.9-5.4,6.9-7c3.2-1.7,6.9-2.6,10.6-2.5c3.5-0.1,6.9,0.7,10,2.4c2.8,1.6,5,3.9,6.4,6.8c1.5,3.1,2.3,6.6,2.2,10.1
			c0.1,3.7-0.7,7.4-2.4,10.8c-1.5,3-3.9,5.4-6.9,7c-3.2,1.7-6.8,2.6-10.5,2.5C547.9,325.9,544.4,325.1,541.4,323.4z M558.6,318.7
			c1.9-1.3,3.3-3.1,4.2-5.2c1-2.4,1.4-5,1.4-7.6c0-2.5-0.4-5-1.2-7.4c-0.7-2.1-2.1-3.9-3.9-5.2c-2-1.4-4.5-2-6.9-1.9
			c-2.4-0.1-4.8,0.6-6.9,2c-1.9,1.3-3.4,3.1-4.3,5.2c-1,2.3-1.4,4.8-1.4,7.2c0,2.6,0.5,5.1,1.4,7.5c0.8,2.1,2.2,3.9,4,5.2
			c2,1.3,4.4,2,6.8,1.9C554.2,320.7,556.6,320,558.6,318.7L558.6,318.7z M547.2,283.9l6.9-8.2l7,0.6l-9.8,8.1L547.2,283.9z"/>
		<path id="路径_21" d="M578.3,286.8h12.1c4.4,0,7.7,0.9,10,2.6c2.3,1.8,3.5,4.6,3.4,7.5c0,1.9-0.4,3.7-1.2,5.4
			c-0.7,1.5-1.7,2.8-3,3.8c-1.1,0.9-2.4,1.7-3.7,2.2l11.8,17h-7.7l-10-15.3H585v15.2h-6.7L578.3,286.8z M588.8,305
			c1.5,0,3-0.3,4.3-1c1.2-0.6,2.2-1.5,2.9-2.7c0.7-1.2,1-2.6,1-4c0.1-1.6-0.6-3.2-1.8-4.2c-1.6-1-3.5-1.5-5.3-1.4H585V305H588.8z"/>
		<path id="路径_22" d="M633.6,315h-15.4l-3.8,10.3h-6.8l15.1-38.5h6.4l15.4,38.5h-7.1L633.6,315z M620.2,309.8h11.5l-4.1-11
			c-0.6-1.5-1.1-3.2-1.7-5c-0.5,1.6-1,3.3-1.6,5L620.2,309.8z"/>
		<path id="路径_23" d="M649.3,286.8h6.6v32.8h15.9l-0.6,5.7h-22L649.3,286.8z"/>
		<path id="路径_24" d="M683.9,323.4c-2.8-1.6-5-3.9-6.5-6.8c-1.5-3.2-2.3-6.7-2.2-10.2c-0.1-3.7,0.7-7.3,2.4-10.6
			c1.5-3,3.9-5.4,6.9-7c3.3-1.7,6.9-2.6,10.6-2.5c3.5-0.1,6.9,0.7,10,2.4c2.8,1.6,5,3.9,6.4,6.8c1.5,3.1,2.3,6.6,2.2,10.1
			c0.1,3.7-0.7,7.4-2.4,10.8c-1.5,3-3.9,5.4-6.9,7c-3.2,1.7-6.8,2.6-10.4,2.5C690.5,325.9,687,325.1,683.9,323.4z M701.2,318.7
			c1.9-1.3,3.3-3.1,4.2-5.2c1-2.4,1.4-5,1.4-7.6c0-2.5-0.4-5-1.2-7.4c-0.8-2.1-2.1-3.9-3.9-5.2c-4.2-2.6-9.5-2.6-13.8,0
			c-1.9,1.3-3.3,3.1-4.2,5.2c-1,2.3-1.5,4.8-1.4,7.3c0,2.6,0.4,5.1,1.3,7.5c0.8,2.1,2.2,3.9,4.1,5.2c2,1.3,4.4,2,6.8,1.9
			C696.8,320.7,699.1,320,701.2,318.7L701.2,318.7z"/>
		<path id="路径_25" d="M737.7,286.8h22.7l-0.6,5.5h-15.4v10.6h14.5v5.1h-14.5v11.8h16.2l-0.5,5.5h-22.3V286.8z"/>
		<path id="路径_26" d="M767.8,286.8h7.6l19,29.8c-0.2-2.8-0.2-5.4-0.2-7.8v-22h6.2v38.5H793L773.7,295c0.2,3.4,0.3,6.5,0.3,9.1
			v21.2h-6.2V286.8z"/>
	</g>
	<g id="矩形_1" transform="translate(410 412)" opacity="0">
		<rect x="146" y="240" fill="#FFFFFF" width="899" height="314"/>
		<rect x="146.5" y="240.5" fill="none" stroke="#707070" width="898" height="313"/>
	</g>
</g>
</svg>
