<?xml version="1.0" encoding="utf-8"?>
<!-- Generator: Adobe Illustrator 18.1.1, SVG Export Plug-In . SVG Version: 6.00 Build 0)  -->
<svg version="1.1" xmlns="http://www.w3.org/2000/svg" xmlns:xlink="http://www.w3.org/1999/xlink" x="0px" y="0px"
	 viewBox="359.1 442.3 24 24" enable-background="new 359.1 442.3 24 24" xml:space="preserve">
<g id="Capa_1" display="none">
	<g display="inline">
		<path fill="#FFFFFF" d="M371.2,447.4c0.3,0,0.6,0.2,0.6,0.5l0,0.1v1.2c0,0.3-0.3,0.6-0.6,0.6c-0.3,0-0.6-0.2-0.6-0.5l0-0.1V448
			C370.6,447.6,370.8,447.4,371.2,447.4z M371.2,452.1c0.3,0,0.6,0.3,0.6,0.6v8.2c0,0.3-0.3,0.6-0.6,0.6s-0.6-0.3-0.6-0.6v-8.2
			C370.6,452.3,370.8,452.1,371.2,452.1z M371.2,443.9c-5.8,0-10.6,4.7-10.6,10.5c0,5.8,4.7,10.5,10.6,10.5
			c5.8,0,10.6-4.7,10.6-10.5C381.7,448.6,377,443.9,371.2,443.9z M371.2,442.7c6.5,0,11.7,5.2,11.7,11.7c0,6.4-5.3,11.7-11.7,11.7
			s-11.7-5.2-11.7-11.7C359.4,447.9,364.7,442.7,371.2,442.7z"/>
	</g>
</g>
<g id="Layer_2">
	<g>
		<path fill="#FFFFFF" d="M368.5,448.2c0.9-0.8,2.2-1.1,3.4-0.9c1.7,0.3,3,1.7,3.3,3.3c0.3,1.8-0.5,3.5-2.1,4.4
			c-0.9,0.5-1.4,1.3-1.4,2.2v0.3c0,0.3-0.3,0.6-0.6,0.6s-0.6-0.3-0.6-0.6v-0.3c0-1.3,0.8-2.5,2-3.2c1.1-0.6,1.7-1.8,1.5-3.1
			c-0.2-1.2-1.2-2.2-2.4-2.4c-0.9-0.2-1.8,0.1-2.5,0.6c-0.7,0.6-1.1,1.4-1.1,2.3c0,0.3-0.3,0.6-0.6,0.6c-0.3,0-0.6-0.3-0.6-0.6
			C367,450.1,367.6,449,368.5,448.2z M371.2,459.1c0.3,0,0.6,0.2,0.6,0.5l0,0.1v1.2c0,0.3-0.3,0.6-0.6,0.6c-0.3,0-0.6-0.2-0.6-0.5
			l0-0.1v-1.2C370.6,459.4,370.8,459.1,371.2,459.1z M371.2,443.7c-5.9,0-10.7,4.8-10.7,10.6c0,5.9,4.8,10.6,10.7,10.6
			c5.9,0,10.7-4.8,10.7-10.6C381.9,448.5,377.1,443.7,371.2,443.7z M371.2,442.6c6.6,0,11.9,5.3,11.9,11.8c0,6.5-5.3,11.8-11.9,11.8
			c-6.6,0-11.9-5.3-11.9-11.8C359.3,447.9,364.6,442.6,371.2,442.6z"/>
	</g>
</g>
</svg>
