<?xml version="1.0" encoding="utf-8"?>
<!-- Generator: Adobe Illustrator 24.0.1, SVG Export Plug-In . SVG Version: 6.00 Build 0)  -->
<svg version="1.1" id="Capa_1" xmlns="http://www.w3.org/2000/svg" xmlns:xlink="http://www.w3.org/1999/xlink" x="0px" y="0px"
	 viewBox="0 0 960 560" style="enable-background:new 0 0 960 560;" xml:space="preserve">
<style type="text/css">
	.st0{fill-rule:evenodd;clip-rule:evenodd;fill:#0065CC;}
</style>
<g>
	<path class="st0" d="M595.23,283.59l-0.07,0.07l-0.08,0.1l-0.12,0.12l-43.25,43.25c-2.28,2.28-5.97,2.28-8.25,0
		c-2.11-2.12-2.27-5.45-0.46-7.74l0.46-0.51l33.29-33.29l-131.51,0c-3,0-5.48-2.28-5.8-5.2l-0.04-0.64c0-3.01,2.28-5.48,5.2-5.8
		l0.63-0.03l131.5,0l-33.28-33.29c-2.11-2.12-2.27-5.45-0.46-7.74l0.46-0.51c2.11-2.12,5.45-2.27,7.74-0.45l0.51,0.45l43.25,43.25
		c0.03,0.03,0.06,0.07,0.1,0.1c0.08,0.08,0.15,0.16,0.23,0.25c0.08,0.09,0.14,0.18,0.21,0.27c0.06,0.08,0.12,0.16,0.18,0.25
		c0.06,0.08,0.11,0.16,0.16,0.25c0.08,0.12,0.14,0.24,0.21,0.37c0.03,0.06,0.06,0.12,0.09,0.18c0.05,0.11,0.1,0.21,0.14,0.33
		c0.53,1.35,0.53,2.86,0.02,4.22c-0.12,0.32-0.28,0.63-0.45,0.93c-0.05,0.08-0.09,0.15-0.14,0.22c-0.07,0.1-0.14,0.2-0.21,0.3
		l-0.24,0.29L595.23,283.59z M439.32,163.34c3.22,0,5.83,2.61,5.83,5.83s-2.62,5.83-5.83,5.83h-29.64
		c-18.81,0-34.69,20.11-34.69,45.5v119c0,25.38,15.87,45.49,34.69,45.49h29.64c3.22,0,5.83,2.61,5.83,5.83s-2.62,5.83-5.83,5.83
		h-29.64c-25.94,0-46.35-25.86-46.35-57.15v-119c0-31.31,20.41-57.17,46.35-57.17H439.32z"/>
</g>
</svg>
