<?xml version="1.0" encoding="utf-8"?>
<!-- Generator: Adobe Illustrator 24.0.1, SVG Export Plug-In . SVG Version: 6.00 Build 0)  -->
<svg version="1.1" id="Capa_1" xmlns="http://www.w3.org/2000/svg" xmlns:xlink="http://www.w3.org/1999/xlink" x="0px" y="0px"
	 viewBox="0 0 960 560" style="enable-background:new 0 0 960 560;" xml:space="preserve">
<style type="text/css">
	.st0{fill-rule:evenodd;clip-rule:evenodd;fill:#0065CC;}
</style>
<g>
	<path class="st0" d="M456.39,257.37c-12.95,12.66-12.95,33.12,0,45.78c13.04,12.73,34.22,12.73,47.24,0.01
		c12.95-12.67,12.95-33.14,0-45.79C490.6,244.64,469.43,244.64,456.39,257.37z M511.78,249.03c17.64,17.24,17.64,45.23,0,62.48
		c-17.56,17.14-45.97,17.14-63.55,0c-17.64-17.24-17.64-45.24,0-62.47C465.81,231.87,494.22,231.87,511.78,249.03z M499.38,175
		h-38.75v15.89c0,6.35-4.09,11.82-10.12,14.09c-8.09,3.04-15.63,7.32-22.38,12.68c-4.99,3.96-11.8,4.67-17.32,1.55l-14.32-8.07
		l-19.28,32.61l14.04,7.93c5.62,3.16,8.48,9.46,7.43,15.85c-0.7,4.12-1.06,8.28-1.06,12.47s0.36,8.35,1.07,12.5
		c1.04,6.35-1.82,12.66-7.43,15.81l-14.04,7.93l19.28,32.61l14.31-8.06c5.52-3.12,12.32-2.42,17.33,1.54
		c6.74,5.36,14.28,9.64,22.39,12.68c6.02,2.27,10.11,7.74,10.11,14.1V385h38.75v-15.88c0-6.34,4.09-11.83,10.12-14.1
		c8.09-3.04,15.63-7.32,22.38-12.68c4.99-3.96,11.8-4.67,17.32-1.55l14.32,8.07l19.27-32.61l-14.03-7.93
		c-5.61-3.16-8.48-9.47-7.43-15.85c0.7-4.12,1.06-8.28,1.06-12.47s-0.36-8.35-1.07-12.5c-1.04-6.35,1.82-12.66,7.43-15.81
		l14.03-7.93l-19.27-32.61l-14.31,8.06c-5.52,3.12-12.33,2.42-17.33-1.54c-6.75-5.36-14.29-9.64-22.39-12.68
		c-6.02-2.27-10.11-7.74-10.11-14.09V175z M505.21,163.33c3.22,0,5.83,2.61,5.83,5.83v21.72c0,1.32,0.93,2.56,2.55,3.17
		c9.24,3.46,17.85,8.35,25.54,14.46c1.36,1.08,3.05,1.26,4.34,0.53l19.3-10.88c2.77-1.56,6.27-0.62,7.89,2.11l25.2,42.66
		c1.66,2.81,0.69,6.44-2.15,8.05l-19.22,10.85c-1.26,0.71-1.91,2.15-1.65,3.72c0.81,4.77,1.23,9.58,1.23,14.43s-0.41,9.67-1.22,14.4
		c-0.26,1.61,0.39,3.05,1.65,3.76l19.21,10.85c2.84,1.61,3.82,5.23,2.15,8.05l-25.2,42.66c-1.62,2.73-5.12,3.67-7.89,2.11
		l-19.31-10.88c-1.28-0.73-2.97-0.55-4.33,0.53c-7.7,6.11-16.31,11-25.53,14.46c-1.62,0.61-2.56,1.87-2.56,3.18v21.72
		c0,3.22-2.61,5.83-5.83,5.83H454.8c-3.22,0-5.83-2.61-5.83-5.83v-21.72c0-1.33-0.93-2.57-2.55-3.18
		c-9.25-3.46-17.86-8.36-25.53-14.46c-1.36-1.08-3.06-1.26-4.35-0.53l-19.3,10.88c-2.77,1.56-6.27,0.62-7.89-2.11l-25.21-42.65
		c-1.66-2.81-0.69-6.44,2.15-8.05l19.23-10.85c1.25-0.71,1.91-2.15,1.65-3.72c-0.81-4.77-1.23-9.58-1.23-14.43s0.41-9.67,1.22-14.4
		c0.26-1.61-0.39-3.05-1.65-3.76l-19.23-10.85c-2.85-1.61-3.82-5.23-2.15-8.05l25.21-42.65c1.61-2.73,5.12-3.67,7.89-2.11
		l19.31,10.88c1.28,0.73,2.97,0.55,4.33-0.53c7.7-6.11,16.31-11,25.53-14.46c1.63-0.62,2.56-1.86,2.56-3.18v-21.72
		c0-3.22,2.61-5.83,5.83-5.83H505.21z"/>
</g>
</svg>
