<?xml version="1.0" encoding="utf-8"?>
<!-- Generator: Adobe Illustrator 18.1.1, SVG Export Plug-In . SVG Version: 6.00 Build 0)  -->
<svg version="1.1" xmlns="http://www.w3.org/2000/svg" xmlns:xlink="http://www.w3.org/1999/xlink" x="0px" y="0px"
	 viewBox="110 336.8 391.7 117.5" enable-background="new 110 336.8 391.7 117.5" xml:space="preserve">
<g id="katman_1">
	<path id="Path_1" d="M474.1,336.8H137.7c-1.1,0-2.1,0-3.2,0c-0.9,0-1.8,0-2.7,0c-1.9,0.1-3.9,0.2-5.8,0.5c-1.9,0.3-3.7,0.9-5.5,1.8
		c-1.7,0.9-3.3,2.1-4.7,3.4c-1.4,1.4-2.5,3-3.4,4.7c-0.9,1.8-1.5,3.6-1.8,5.5c-0.4,1.9-0.5,3.9-0.5,5.8c0,0.9,0,1.8,0,2.7v3.2v62.2
		v3.2c0,0.9,0,1.8,0,2.7c0.1,1.9,0.2,3.9,0.5,5.8c0.3,1.9,0.9,3.8,1.8,5.5c0.9,1.7,2,3.3,3.4,4.7c1.4,1.4,3,2.5,4.7,3.4
		c1.8,0.9,3.6,1.5,5.5,1.9c1.9,0.3,3.9,0.4,5.8,0.5c0.9,0,1.8,0,2.7,0c1,0,2.1,0,3.2,0h336.4c1,0,2.1,0,3.1,0c0.9,0,1.8,0,2.7,0
		c1.9-0.1,3.9-0.2,5.8-0.5c1.9-0.4,3.8-0.9,5.5-1.9c1.7-0.9,3.3-2,4.7-3.4c1.4-1.3,2.5-3,3.4-4.7c0.9-1.8,1.5-3.6,1.8-5.5
		c0.4-1.9,0.5-3.9,0.5-5.8c0-0.9,0-1.8,0-2.7c0-1,0-2.1,0-3.2v-62.2c0-1.1,0-2.1,0-3.2c0-0.9,0-1.8,0-2.7c-0.1-1.9-0.2-3.9-0.5-5.8
		c-0.3-1.9-0.9-3.8-1.8-5.5c-0.9-1.7-2.1-3.3-3.4-4.7c-1.4-1.4-3-2.5-4.7-3.4c-1.8-0.9-3.6-1.5-5.5-1.8c-1.9-0.4-3.9-0.5-5.8-0.5
		c-0.9,0-1.8,0-2.7,0C476.2,336.8,475.1,336.8,474.1,336.8z"/>
	<path id="Path_2" fill="#0071CE" d="M134.5,451.8c-0.9,0-1.7,0-2.6,0c-1.6,0-3.5-0.1-5.4-0.5c-1.8-0.3-3.3-0.8-4.8-1.6
		c-1.5-0.7-2.9-1.8-4-2.9c-1.2-1.2-2.2-2.5-3-4.1c-0.7-1.5-1.3-3-1.6-4.8c-0.4-1.9-0.4-3.9-0.5-5.4c0-0.6,0-2.7,0-2.7v-68.5
		c0,0,0-2,0-2.6c0-1.5,0.1-3.5,0.5-5.4c0.3-1.8,0.8-3.3,1.6-4.8c0.8-1.5,1.8-2.9,2.9-4c1.2-1.2,2.6-2.2,4.1-3
		c1.5-0.8,3.1-1.3,4.8-1.6c1.9-0.4,3.9-0.4,5.4-0.5l2.6,0h342.6l2.7,0c1.5,0,3.5,0.1,5.4,0.5c1.8,0.3,3.3,0.8,4.8,1.6
		c1.5,0.7,2.9,1.8,4,3c1.2,1.2,2.2,2.5,3,4.1c0.7,1.5,1.3,3,1.5,4.8c0.4,1.8,0.4,3.7,0.5,5.5c0,0.8,0,1.7,0,2.6c0,1.1,0,2.1,0,3.2
		v62.2c0,1,0,2.1,0,3.1c0,0.9,0,1.8,0,2.7c-0.1,1.7-0.2,3.6-0.5,5.4c-0.3,1.8-0.8,3.3-1.6,4.8c-0.8,1.5-1.8,2.9-2.9,4
		c-1.2,1.2-2.6,2.2-4.1,3c-1.5,0.8-3,1.3-4.8,1.6c-1.9,0.4-3.8,0.4-5.4,0.5c-0.8,0-1.7,0-2.6,0h-3.1L134.5,451.8L134.5,451.8z"/>
	<path id="AppGallery" display="none" fill="#010202" d="M243.4,411.3l-6.5-17.6l-6.5,17.6H243.4z M220.7,424.4l13.5-35.4h5.4
		l13.5,35.4h-5l-3.2-9.1H229l-3.2,9.1H220.7z M262.3,420.4v14.1H258v-36.7h4.4v4c0.9-1.6,2.1-2.7,3.5-3.5c1.4-0.8,3.1-1.2,5-1.2
		c3.2,0,5.8,1.3,7.9,3.9c2,2.6,3,5.9,3,10.1c0,4.2-1,7.5-3,10.1c-2,2.6-4.6,3.8-7.9,3.8c-1.9,0-3.6-0.4-5-1.1
		C264.4,423.2,263.3,422,262.3,420.4z M277.2,411.2c0-3.2-0.7-5.7-2-7.6c-1.3-1.8-3.1-2.8-5.4-2.8c-2.3,0-4.1,0.9-5.5,2.8
		c-1.3,1.8-2,4.4-2,7.6s0.7,5.7,2,7.6c1.3,1.8,3.2,2.7,5.5,2.7c2.3,0,4.1-0.9,5.4-2.7C276.5,416.9,277.2,414.4,277.2,411.2z
		 M293.2,420.4v14.1h-4.4v-36.7h4.4v4c0.9-1.6,2.1-2.7,3.4-3.5c1.4-0.8,3.1-1.2,5.1-1.2c3.2,0,5.8,1.3,7.8,3.9c2,2.6,3,5.9,3,10.1
		c0,4.2-1,7.5-3,10.1c-2,2.6-4.6,3.8-7.8,3.8c-2,0-3.6-0.4-5.1-1.1C295.3,423.2,294.1,422,293.2,420.4z M308,411.2
		c0-3.2-0.7-5.7-2-7.6c-1.3-1.8-3.1-2.8-5.4-2.8c-2.3,0-4.1,0.9-5.5,2.8c-1.3,1.8-1.9,4.4-1.9,7.6s0.6,5.7,1.9,7.6
		c1.3,1.8,3.2,2.7,5.5,2.7c2.3,0,4.1-0.9,5.4-2.7C307.3,416.9,308,414.4,308,411.2z M344,419.4v-9.5h-7.8v-3.9h12.6v15.2
		c-1.9,1.3-3.9,2.3-6.1,3c-2.2,0.7-4.6,1-7.1,1c-5.5,0-9.9-1.6-13-4.8c-3.1-3.2-4.7-7.7-4.7-13.5s1.6-10.3,4.7-13.5
		c3.1-3.2,7.5-4.9,13-4.9c2.3,0,4.5,0.3,6.5,0.9c2.1,0.6,4,1.4,5.8,2.5v5.1c-1.8-1.5-3.7-2.7-5.6-3.4s-4.1-1.1-6.3-1.1
		c-4.3,0-7.6,1.2-9.8,3.6c-2.2,2.4-3.2,6-3.2,10.8s1.1,8.4,3.2,10.8c2.2,2.4,5.5,3.6,9.8,3.6c1.7,0,3.2-0.1,4.5-0.4
		C341.7,420.4,342.9,420,344,419.4z M373.5,411h-4.3c-3.5,0-6,0.4-7.3,1.2c-1.4,0.8-2,2.2-2,4.1c0,1.6,0.5,2.8,1.5,3.7
		c1,0.9,2.4,1.3,4.2,1.3c2.4,0,4.4-0.9,5.8-2.6c1.5-1.7,2.2-4,2.2-6.9L373.5,411L373.5,411z M377.9,409.2v15.2h-4.4v-4
		c-1,1.6-2.2,2.8-3.7,3.6c-1.5,0.8-3.3,1.1-5.5,1.1c-2.7,0-4.9-0.8-6.5-2.3c-1.6-1.5-2.4-3.6-2.4-6.2c0-3,1-5.2,3-6.8
		c2-1.5,5-2.3,9-2.3h6.1v-0.4c0-2-0.7-3.6-2-4.7c-1.3-1.1-3.2-1.6-5.6-1.6c-1.5,0-3,0.2-4.4,0.5s-2.8,0.9-4.2,1.6v-4
		c1.6-0.6,3.1-1.1,4.7-1.4c1.5-0.3,2.9-0.5,4.4-0.5c3.8,0,6.7,1,8.6,3C376.9,402.2,377.9,405.2,377.9,409.2z M386.9,424.4v-36.9h4.4
		v36.9H386.9z M400.4,424.4v-36.9h4.4v36.9H400.4z M436.5,410v2.2h-20.1c0.2,3,1.1,5.3,2.7,6.9c1.6,1.6,3.9,2.3,6.8,2.3
		c1.7,0,3.3-0.2,4.8-0.6c1.6-0.4,3.2-1,4.7-1.9v4.1c-1.6,0.7-3.2,1.2-4.8,1.5c-1.6,0.3-3.3,0.5-5,0.5c-4.2,0-7.6-1.2-10.1-3.7
		c-2.5-2.4-3.7-5.8-3.7-10c0-4.4,1.2-7.8,3.5-10.3c2.3-2.6,5.5-3.9,9.5-3.9c3.6,0,6.4,1.2,8.5,3.5C435.4,403,436.5,406.1,436.5,410z
		 M416.5,408.8h15.6c0-2.4-0.7-4.3-2-5.7c-1.3-1.4-3-2.1-5.2-2.1c-2.4,0-4.4,0.7-5.9,2.1C417.6,404.3,416.7,406.3,416.5,408.8z
		 M458.8,397.4l0,4.5c-0.5-0.3-1-0.5-1.6-0.6c-0.6-0.1-1.2-0.2-1.9-0.2c-2.5,0-4.4,0.8-5.7,2.4c-1.3,1.6-2,3.9-2,6.9v14h-4.4v-26.5
		h4.4v4.1c0.9-1.6,2.1-2.8,3.6-3.6c1.5-0.8,3.3-1.2,5.4-1.2c0.3,0,0.6,0,1,0.1C458,397.3,458.4,397.4,458.8,397.4z M486.1,397.8
		l-11.7,29c-1.2,3.2-2.4,5.2-3.6,6.2c-1.2,1-2.7,1.4-4.7,1.4h-3.5v-3.6h2.6c1.2,0,2.1-0.3,2.8-0.9c0.7-0.6,1.4-1.9,2.2-4l0.8-2
		l-10.8-26.1h4.6l8.3,20.7l8.3-20.7H486.1z"/>
	<path id="EXPLORE_IT_ON" display="none" fill="#010202" d="M220.4,376.6v-18.3H232v2.1h-9.1v5.4h8.7v2.1h-8.7v6.6h9.3v2.1
		L220.4,376.6L220.4,376.6z M241.1,366.8l-5.7-8.5h2.7l4.5,6.8l4.5-6.8h2.7l-5.9,8.8l6.2,9.5h-2.7l-5.1-7.8l-5.2,7.8h-2.7
		L241.1,366.8z M259,360.3h-3.1v6.9h3.1c1.2,0,2.1-0.3,2.7-0.9c0.6-0.6,0.9-1.5,0.9-2.6c0-1.1-0.3-1.9-0.9-2.5
		C261.1,360.6,260.2,360.3,259,360.3z M253.5,376.6v-18.3h5.6c2.1,0,3.6,0.5,4.7,1.4c1,0.9,1.6,2.3,1.6,4.1c0,1.8-0.5,3.2-1.6,4.1
		c-1.1,0.9-2.6,1.4-4.7,1.4h-3.1v7.4L253.5,376.6L253.5,376.6z M268.6,376.6v-18.3h2.5v16.2h8.9v2.1H268.6z M289.1,360
		c-1.8,0-3.2,0.7-4.3,2c-1,1.3-1.6,3.2-1.6,5.5c0,2.3,0.5,4.1,1.6,5.5c1.1,1.3,2.5,2,4.3,2c1.8,0,3.2-0.7,4.2-2
		c1.1-1.4,1.6-3.2,1.6-5.5c0-2.3-0.5-4.1-1.6-5.5C292.3,360.6,290.8,360,289.1,360z M289.1,358c2.6,0,4.6,0.9,6.1,2.6
		c1.5,1.7,2.3,4,2.3,6.9c0,2.9-0.8,5.2-2.3,6.9c-1.5,1.7-3.6,2.6-6.1,2.6c-2.6,0-4.6-0.9-6.2-2.6c-1.5-1.7-2.3-4-2.3-6.9
		c0-2.9,0.8-5.2,2.3-6.9C284.4,358.8,286.5,358,289.1,358z M310,368c0.5,0.2,1.1,0.6,1.6,1.2c0.5,0.6,1,1.4,1.5,2.4l2.5,5H313
		l-2.3-4.7c-0.6-1.2-1.2-2-1.8-2.4c-0.6-0.4-1.4-0.6-2.3-0.6h-2.7v7.7h-2.5v-18.3h5.6c2.1,0,3.7,0.4,4.7,1.3c1,0.9,1.5,2.2,1.5,3.9
		c0,1.2-0.3,2.1-0.8,2.9C311.8,367.2,311,367.7,310,368z M306.9,360.3h-3.1v6.5h3.1c1.2,0,2.1-0.3,2.7-0.8c0.6-0.6,0.9-1.4,0.9-2.4
		c0-1.1-0.3-1.9-0.9-2.4C309,360.6,308.1,360.3,306.9,360.3z M318.8,376.6v-18.3h11.5v2.1h-9.1v5.4h8.7v2.1h-8.7v6.6h9.3v2.1
		L318.8,376.6L318.8,376.6z M342.6,376.6v-18.3h2.5v18.3H342.6z M347.5,360.4v-2.1h15.5v2.1h-6.5v16.2h-2.5v-16.2H347.5z M380.7,360
		c-1.8,0-3.2,0.7-4.3,2c-1.1,1.3-1.6,3.2-1.6,5.5c0,2.3,0.5,4.1,1.6,5.5c1.1,1.3,2.5,2,4.3,2c1.8,0,3.2-0.7,4.3-2
		c1-1.4,1.6-3.2,1.6-5.5c0-2.3-0.5-4.1-1.6-5.5C383.9,360.6,382.5,360,380.7,360z M380.7,358c2.6,0,4.6,0.9,6.2,2.6
		c1.5,1.7,2.3,4,2.3,6.9c0,2.9-0.8,5.2-2.3,6.9c-1.5,1.7-3.6,2.6-6.2,2.6s-4.6-0.9-6.2-2.6c-1.5-1.7-2.3-4-2.3-6.9
		c0-2.9,0.8-5.2,2.3-6.9C376,358.8,378.1,358,380.7,358z M393,376.6v-18.3h3.3l8.1,15.3v-15.3h2.4v18.3h-3.3l-8.1-15.3v15.3H393z"/>
	<path id="Path_5" display="none" fill="#010202" d="M189.2,358.4h-32.5c-15.3,0-21,5.6-21,20.9v32.5c0,15.3,5.6,21,21,21h32.5
		c15.3,0,20.9-5.6,20.9-21v-32.5C210.1,363.9,204.5,358.4,189.2,358.4z"/>
	<path id="Path_6" display="none" fill="#FFFFFF" d="M167.4,403.3l-0.9,2h-2l4.3-9.7h1.7l4.3,9.7h-2.1l-0.9-2H167.4z M168.2,401.5h3
		l-1.5-3.5L168.2,401.5z M199.8,395.5h2v9.7h-2V395.5z M192.1,403.5h5.4v1.8h-7.4v-9.7h7.1v1.8h-5.2v2h3.6v1.8h-3.6V403.5z
		 M186.5,395.5h2.1l-3.4,9.7h-1.7l-2.2-6.4l-2.2,6.4h-1.6l-3.4-9.7h2.1l2.2,6.7l2.2-6.7h1.6l2.2,6.7L186.5,395.5z M161.6,395.5h2
		v5.5c0,2.8-1.5,4.4-4.2,4.4c-2.6,0-4.2-1.6-4.2-4.3v-5.6h2v5.5c0,1.6,0.8,2.5,2.2,2.5s2.2-0.9,2.2-2.4V395.5z M150.4,395.5h2v9.7
		h-2v-4H146v4h-2v-9.7h2v3.9h4.5V395.5z M172.9,383.2c-6.9,0-12.4-5.6-12.4-12.4h1.7c0,5.9,4.8,10.6,10.6,10.6
		c5.9,0,10.6-4.8,10.6-10.6h1.7C185.3,377.6,179.7,383.2,172.9,383.2z"/>
</g>
<g id="Layer_4" display="none">
</g>
<g id="Layer_3" display="none">
	<g display="inline">
		<path fill="#FFFFFF" d="M185.2,426.3c-1.5,0.6-3.1,1.2-4.8,1.6c1.6-1.3,3.1-2.7,4.4-4.2l-0.8-6.1c-3.2,4.4-7.3,8.1-12.2,10.9V412
			c4.1,0.2,8,1,11.7,2.3l-0.6-4.5c-3.6-1.1-7.3-1.7-11.1-1.9v-11.5h19.7c-0.2,3.3-0.7,6.5-1.6,9.6l3.9,2.9c1.4-4,2.2-8.2,2.4-12.5
			h11.7c-0.4,6.7-2.9,12.8-6.8,18l3.4,2.6c5-6.4,7.9-14.2,7.9-22.6c0-10.1-4.2-19.3-11.1-26.3l0.1,0l-1.6-1.4
			c-7-6.3-16-10.2-25.7-11.2c-0.1,0-0.1,0-0.2,0c-0.6-0.1-1.2-0.1-1.8-0.1c-0.1,0-0.3,0-0.4,0c-0.2,0-0.5,0-0.8,0
			c-1-0.1-2-0.1-3-0.1c-0.3,0-0.6,0.1-0.9,0.2c-0.1,0-0.1,0-0.2,0c-0.6,0-1.2,0.1-1.8,0.1c-0.1,0-0.1,0-0.2,0
			c-9.7,0.9-18.7,4.8-25.7,11.2l-1.6,1.4l0.1,0c-6.9,6.9-11.1,16.2-11.1,26.3c0,10.1,4.2,19.3,11.1,26.3l-0.1,0l1.6,1.4
			c7,6.3,16,10.2,25.7,11.2c0.1,0,0.1,0,0.2,0c0.6,0.1,1.2,0.1,1.8,0.1c0.1,0,0.1,0,0.2,0c0.3,0.1,0.6,0.2,0.9,0.2c0,0,0,0,0,0
			c1,0,2-0.1,3-0.1c0.3,0,0.5,0,0.8,0c0.1,0,0.3,0,0.4,0c0.6,0,1.2-0.1,1.8-0.1c0.1,0,0.1,0,0.2,0c4.1-0.4,8-1.3,11.7-2.7
			L185.2,426.3z M207.9,392.3h-11.7c-0.3-6.1-1.8-11.9-4.4-17.2c2.2-1.2,4.3-2.6,6.2-4.2C203.8,376.6,207.4,384.1,207.9,392.3z
			 M195,368c-1.6,1.3-3.3,2.4-5.1,3.5c-2.5-4.1-5.7-7.7-9.4-10.8C185.9,362.2,190.8,364.7,195,368z M171.9,360.1
			c5.8,3.3,10.5,7.9,13.9,13.4c-4.3,1.8-9,2.9-13.9,3.2V360.1z M171.9,380.8c5.6-0.3,10.9-1.5,15.9-3.6c2.2,4.7,3.5,9.8,3.8,15.2
			h-19.7V380.8z M158.6,360.7c-3.7,3.1-6.9,6.7-9.4,10.8c-1.8-1-3.5-2.2-5.1-3.4C148.2,364.7,153.2,362.2,158.6,360.7z M140.9,370.9
			c2,1.6,4,3,6.2,4.2c-2.6,5.3-4.1,11.1-4.4,17.2h-11.7C131.6,384.1,135.3,376.6,140.9,370.9z M131.1,396.4h11.7
			c0.3,6.1,1.8,11.9,4.4,17.2c-2.2,1.2-4.3,2.6-6.2,4.2C135.3,412,131.6,404.6,131.1,396.4z M144.1,420.6c1.6-1.3,3.3-2.4,5.1-3.4
			c2.5,4.1,5.7,7.7,9.4,10.8C153.2,426.5,148.2,424,144.1,420.6z M167.2,428.6c-5.8-3.3-10.5-7.9-13.9-13.4c4.3-1.8,9-2.9,13.9-3.2
			V428.6z M167.2,407.9c-5.6,0.3-11,1.5-15.9,3.6c-2.2-4.7-3.5-9.8-3.8-15.2h19.7V407.9z M167.2,392.3h-19.7
			c0.3-5.4,1.6-10.5,3.8-15.2c4.9,2.1,10.3,3.4,15.9,3.6V392.3z M167.2,376.7c-4.9-0.3-9.6-1.4-13.9-3.2c3.4-5.5,8.1-10.1,13.9-13.4
			V376.7z"/>
	</g>
	<polygon display="inline" fill="#FFFFFF" points="207,422.3 185.8,407.4 189.3,430.8 195.5,427.8 201.4,436.9 206.6,434.4 
		200.8,425.3 	"/>
</g>
<g id="Layer_6">
	<g id="Layer_5_1_">
		<path fill="#FFFFFF" d="M210.8,397.1l-39.6,37.8c-1.8,1.7-4.8,1.7-6.6,0l-39.6-37.8c-1.8-1.7-1.8-4.6,0-6.3l39.6-37.8
			c1.8-1.7,4.8-1.7,6.6,0l39.6,37.8C212.7,392.6,212.7,395.4,210.8,397.1z"/>
	</g>
</g>
<g id="Layer_5">
	<path display="none" opacity="0.31" fill="#FFFFFF" d="M125.1,393.1c0.1-0.6-0.8-2-0.8-2.2s0.8-0.9,0.3-1l40.5-38.2
		c1.9-1.8,4.9-1.8,6.8,0l40.5,38.2c1.9,1.8,1.9,4.6,0,6.4l-40.5,38.1c-1.9,1.8-4.9,1.8-6.8,0L125.3,396"/>
	<g id="Capa_1">
		<g>
			<g>
				<path fill="#1D1D1B" d="M151.6,393.9c1.3,0,2.2,0.8,2.2,2c0,1.2-0.9,2-2.3,2h-1v1.7H149v-5.7L151.6,393.9L151.6,393.9z
					 M150.5,396.8h0.7c0.7,0,1-0.3,1-0.9c0-0.6-0.4-0.9-1-0.9h-0.7V396.8L150.5,396.8z"/>
				<path fill="#1D1D1B" d="M158.6,398.3c-0.2,0.9-1,1.4-2.2,1.4c-1.5,0-2.3-0.8-2.3-2.3s0.9-2.3,2.3-2.3c1.4,0,2.3,0.8,2.3,2.2v0.4
					h-3.2v0.1c0,0.6,0.4,0.9,0.9,0.9c0.4,0,0.7-0.1,0.8-0.4L158.6,398.3L158.6,398.3z M155.5,396.9h1.7c0-0.5-0.3-0.8-0.8-0.8
					S155.5,396.4,155.5,396.9z"/>
				<path fill="#1D1D1B" d="M161,394.2v1.1h0.9v1H161v1.8c0,0.3,0.2,0.5,0.6,0.5c0.2,0,0.3,0,0.4,0v1c-0.2,0-0.4,0.1-0.7,0.1
					c-1.2,0-1.7-0.4-1.7-1.2v-2.1h-0.7v-1h0.7v-1.1L161,394.2L161,394.2z"/>
				<path fill="#1D1D1B" d="M162.5,395.2h1.4v0.7h0.1c0.1-0.4,0.6-0.8,1.1-0.8c0.2,0,0.4,0,0.5,0.1v1.2c-0.1,0-0.4-0.1-0.6-0.1
					c-0.7,0-1.1,0.4-1.1,1v2.3h-1.5V395.2L162.5,395.2z"/>
				<path fill="#1D1D1B" d="M165.6,397.4c0-1.4,0.9-2.3,2.4-2.3c1.5,0,2.4,0.9,2.4,2.3c0,1.4-0.9,2.3-2.4,2.3
					C166.5,399.7,165.6,398.8,165.6,397.4z M168.9,397.4c0-0.8-0.3-1.2-0.8-1.2c-0.5,0-0.8,0.5-0.8,1.2s0.3,1.2,0.8,1.2
					C168.6,398.6,168.9,398.2,168.9,397.4z"/>
				<path fill="#1D1D1B" d="M170.9,395.2h1.4v0.7h0.1c0.2-0.5,0.7-0.8,1.3-0.8c0.7,0,1.1,0.3,1.3,0.8h0.1c0.2-0.5,0.7-0.8,1.4-0.8
					c0.9,0,1.5,0.6,1.5,1.5v3h-1.5V397c0-0.5-0.2-0.7-0.7-0.7c-0.4,0-0.7,0.3-0.7,0.7v2.6h-1.4v-2.7c0-0.4-0.2-0.7-0.7-0.7
					c-0.4,0-0.7,0.3-0.7,0.7v2.6h-1.5V395.2L170.9,395.2z"/>
				<path fill="#1D1D1B" d="M178.5,398.3c0-0.8,0.7-1.3,1.9-1.3l1-0.1v-0.4c0-0.3-0.2-0.5-0.7-0.5c-0.4,0-0.7,0.1-0.7,0.4h-1.3
					c0.1-0.9,0.9-1.4,2.2-1.4c1.3,0,2,0.6,2,1.5v3h-1.4v-0.5h-0.1c-0.2,0.4-0.7,0.6-1.3,0.6C179.1,399.7,178.5,399.1,178.5,398.3z
					 M181.4,398v-0.3l-0.8,0.1c-0.4,0-0.7,0.2-0.7,0.5s0.3,0.5,0.6,0.5C181,398.7,181.4,398.4,181.4,398z"/>
				<path fill="#1D1D1B" d="M183.5,395.2h1.4v0.7h0.1c0.1-0.4,0.6-0.8,1.1-0.8c0.2,0,0.4,0,0.5,0.1v1.2c-0.1,0-0.4-0.1-0.6-0.1
					c-0.7,0-1.1,0.4-1.1,1v2.3h-1.5L183.5,395.2L183.5,395.2z"/>
				<path fill="#1D1D1B" d="M160.3,409l-1,6.5c-1.5,0.6-3.5,1-5.4,1c-4.4,0-6.8-2.1-6.8-5.9c0-4.6,3.7-7.7,9.1-7.7
					c1.8,0,3.3,0.3,4.3,0.6l-1.2,3.6c-0.7-0.2-1.7-0.5-2.9-0.5c-3.1,0-4.1,1.6-4.1,3.4c0,2,1.3,2.7,2.5,2.7c0.2,0,0.4,0,0.5,0
					l0.6-3.7H160.3L160.3,409z"/>
				<path fill="#1D1D1B" d="M175,416.2h-5.1l-0.3-2.2h-3.9l-0.9,2.2h-5.1l6.6-13.1h6.1L175,416.2z M167.1,411h2.2l-0.5-4L167.1,411z
					"/>
				<path fill="#1D1D1B" d="M187.4,411.6c0,3.2-2.6,4.9-6.7,4.9c-2,0-3.8-0.4-5.1-1l1.3-3.6c0.9,0.5,2.3,1.1,4,1.1
					c1.1,0,1.3-0.3,1.3-0.4c0-1.1-5.5,0-5.5-4.5c0-3,2.5-5.1,6.5-5.1c1.5,0,3.4,0.3,4.8,0.8l-1.3,3.6c-0.8-0.4-2.3-0.8-3.7-0.8
					c-0.7,0-1.3,0.1-1.3,0.4C181.8,408.1,187.4,407,187.4,411.6z"/>
			</g>
			<g>
				<g>
					<g>
						<path fill="#0071CE" d="M163,368c-3.2,2.7-5.1,6.7-5.1,11c0,1.3,0.2,2.6,0.5,3.9l0,0c0.7,2.7,2.8,4.9,5.5,6l0,0
							c0.5,0.2,1.1,0.4,1.7,0.4c2.3,0,4.1-1.7,4.1-3.9c0-1.3-0.6-2.4-1.6-3.1C165,380,161.6,374.8,163,368L163,368z"/>
						<path fill="#CE0E2D" d="M171.3,380c0.2,0.2,0.5,0.3,0.7,0.5c1.2,1,2,2.4,2,4c0,1.2-0.5,2.4-1.2,3.3c0,0,0,0,0,0.1
							c1.7-1.9,2.7-4.4,2.7-7c0-2.9-1.3-5.7-3.3-7.6c-2-2-3.3-4.7-3.3-7.7c0-1.2,0.2-2.4,0.6-3.5l0,0c0,0-2.8,3.6-2.8,9
							c0,0.2,0,0.5,0,0.7C166.8,375.1,168.6,378.1,171.3,380z"/>
						<path fill="#00833E" d="M172.5,369.5c-2.8-3.4-3.1-7.5-3.2-7.5c-0.4,1.1-0.6,2.3-0.6,3.5c0,2.9,1.3,5.7,3.3,7.7
							c2,2,3.3,4.7,3.3,7.6c0,2.7-1,5.1-2.7,7c0,0.1-0.1,0.2,0.1,0.3c0.2,0.2,0.5-0.1,0.5-0.1c4.8-3.2,4.1-8.2,4.1-8.2
							C177.3,374,172.5,369.5,172.5,369.5z"/>
						<path fill="#1D1E1C" d="M167.5,362.2c-1.4,2.2-2.2,4.8-2.2,7.6c0,4.5,2.1,8.6,5.5,11.3c0,0,2,1.3,2,3.9c0,3.3-2.6,4.3-4.3,4.7
							c0,0,0,0-0.1-0.1s0-0.1,0-0.1c1.7-0.6,2.9-2.2,2.9-4c0-2.2-1.7-3.4-1.7-3.4c-5.9-4.5-5.6-11.1-5.6-11.1c0-3.3,1.2-6.4,3.2-8.9
							c0,0,0.1-0.2,0.3-0.1C167.6,362.1,167.5,362.2,167.5,362.2z"/>
					</g>
				</g>
			</g>
		</g>
	</g>
</g>
<g id="Layer_2">
	<g>
		<path fill="#FFFFFF" d="M220.8,376.6v-11.5h8.5v1.9h-6.2v2.5h5.8v1.9h-5.8v3.1h6.4v1.9H220.8z"/>
		<path fill="#FFFFFF" d="M230.3,376.6l3.9-6l-3.5-5.5h2.7l2.3,3.7l2.3-3.7h2.7l-3.6,5.6l3.9,5.9h-2.8l-2.5-4l-2.5,4H230.3z"/>
		<path fill="#FFFFFF" d="M242.2,376.6v-11.5h3.7c1.4,0,2.3,0.1,2.8,0.2c0.7,0.2,1.2,0.5,1.6,1.1c0.4,0.6,0.7,1.3,0.7,2.2
			c0,0.7-0.1,1.3-0.4,1.8c-0.3,0.5-0.6,0.9-1,1.1c-0.4,0.3-0.8,0.5-1.2,0.5c-0.6,0.1-1.4,0.2-2.4,0.2h-1.5v4.3H242.2z M244.5,367.1
			v3.3h1.3c0.9,0,1.5-0.1,1.8-0.2c0.3-0.1,0.5-0.3,0.7-0.6c0.2-0.3,0.3-0.6,0.3-0.9c0-0.4-0.1-0.8-0.4-1c-0.2-0.3-0.6-0.4-0.9-0.5
			c-0.3-0.1-0.8-0.1-1.7-0.1H244.5z"/>
		<path fill="#FFFFFF" d="M252.9,376.6v-11.4h2.3v9.4h5.8v1.9H252.9z"/>
		<path fill="#FFFFFF" d="M262.2,370.9c0-1.2,0.2-2.1,0.5-2.9c0.3-0.6,0.6-1.1,1.1-1.6c0.5-0.5,0.9-0.8,1.5-1
			c0.7-0.3,1.5-0.5,2.5-0.5c1.7,0,3,0.5,4.1,1.6c1,1,1.5,2.5,1.5,4.4c0,1.8-0.5,3.3-1.5,4.3c-1,1-2.3,1.6-4,1.6
			c-1.7,0-3.1-0.5-4.1-1.6C262.7,374.2,262.2,372.8,262.2,370.9z M264.5,370.9c0,1.3,0.3,2.3,0.9,2.9c0.6,0.7,1.4,1,2.3,1
			s1.7-0.3,2.3-1c0.6-0.7,0.9-1.7,0.9-3c0-1.3-0.3-2.3-0.9-2.9c-0.6-0.6-1.3-1-2.3-1s-1.7,0.3-2.3,1
			C264.8,368.5,264.5,369.5,264.5,370.9z M266.3,364.5l1.1-2.3h2.5l-2.1,2.3H266.3z"/>
		<path fill="#FFFFFF" d="M275.1,376.6v-11.5h4.9c1.2,0,2.1,0.1,2.7,0.3c0.6,0.2,1,0.6,1.3,1.1c0.3,0.5,0.5,1.1,0.5,1.8
			c0,0.9-0.3,1.6-0.8,2.1c-0.5,0.6-1.3,0.9-2.3,1.1c0.5,0.3,0.9,0.6,1.2,1c0.3,0.3,0.8,1,1.3,1.9l1.4,2.2h-2.8l-1.7-2.5
			c-0.6-0.9-1-1.5-1.2-1.7s-0.5-0.4-0.7-0.5c-0.2-0.1-0.6-0.1-1.2-0.1h-0.5v4.8H275.1z M277.4,370h1.7c1.1,0,1.8,0,2.1-0.1
			c0.3-0.1,0.5-0.3,0.6-0.5s0.2-0.5,0.2-0.9c0-0.4-0.1-0.7-0.3-0.9c-0.2-0.2-0.5-0.4-0.9-0.4c-0.2,0-0.8,0-1.7,0h-1.8V370z"/>
		<path fill="#FFFFFF" d="M296.9,376.6h-2.5l-1-2.6h-4.6l-0.9,2.6h-2.5l4.5-11.5h2.4L296.9,376.6z M292.7,372.1l-1.6-4.3l-1.5,4.3
			H292.7z"/>
		<path fill="#FFFFFF" d="M298.2,376.6v-11.4h2.3v9.4h5.7v1.9H298.2z"/>
		<path fill="#FFFFFF" d="M307.5,370.9c0-1.2,0.2-2.1,0.5-2.9c0.3-0.6,0.6-1.1,1.1-1.6s0.9-0.8,1.5-1c0.7-0.3,1.5-0.5,2.5-0.5
			c1.7,0,3,0.5,4.1,1.6s1.5,2.5,1.5,4.4c0,1.8-0.5,3.3-1.5,4.3s-2.3,1.6-4,1.6c-1.7,0-3.1-0.5-4.1-1.6S307.5,372.8,307.5,370.9z
			 M309.9,370.9c0,1.3,0.3,2.3,0.9,2.9s1.4,1,2.3,1s1.7-0.3,2.3-1s0.9-1.7,0.9-3c0-1.3-0.3-2.3-0.9-2.9s-1.3-1-2.3-1s-1.7,0.3-2.3,1
			S309.9,369.5,309.9,370.9z"/>
		<path fill="#FFFFFF" d="M324.8,376.6v-11.5h8.5v1.9h-6.2v2.5h5.8v1.9h-5.8v3.1h6.4v1.9H324.8z"/>
		<path fill="#FFFFFF" d="M335.5,376.6v-11.5h2.3l4.7,7.6v-7.6h2.1v11.5h-2.3l-4.6-7.5v7.5H335.5z"/>
		<path fill="#FFFFFF" d="M351.5,376.6v-11.5h2.3l4.7,7.6v-7.6h2.1v11.5h-2.3l-4.6-7.5v7.5H351.5z"/>
		<path fill="#FFFFFF" d="M363,365.1h2.3v6.2c0,1,0,1.6,0.1,1.9c0.1,0.5,0.3,0.8,0.7,1.1s0.9,0.4,1.5,0.4c0.7,0,1.2-0.1,1.5-0.4
			s0.5-0.6,0.6-1s0.1-1,0.1-1.9v-6.3h2.3v6c0,1.4-0.1,2.3-0.2,2.9s-0.4,1-0.7,1.4s-0.8,0.7-1.3,0.9s-1.3,0.3-2.2,0.3
			c-1.1,0-1.9-0.1-2.5-0.4s-1-0.6-1.3-1s-0.5-0.8-0.6-1.3c-0.2-0.7-0.2-1.6-0.2-2.9V365.1z"/>
		<path fill="#FFFFFF" d="M374.6,376.6v-11.5h8.5v1.9h-6.2v2.5h5.8v1.9h-5.8v3.1h6.4v1.9H374.6z"/>
		<path fill="#FFFFFF" d="M384.7,372.9l2.3-0.2c0.1,0.8,0.4,1.3,0.8,1.7s1,0.5,1.7,0.5c0.7,0,1.3-0.2,1.7-0.5s0.6-0.7,0.6-1.1
			c0-0.3-0.1-0.5-0.2-0.7s-0.4-0.4-0.8-0.5c-0.3-0.1-0.9-0.3-1.9-0.5c-1.2-0.3-2.1-0.7-2.6-1.1c-0.7-0.6-1.1-1.4-1.1-2.3
			c0-0.6,0.2-1.1,0.5-1.6s0.8-0.9,1.4-1.2s1.4-0.4,2.3-0.4c1.4,0,2.5,0.3,3.2,0.9s1.1,1.5,1.1,2.5l-2.3,0.1c-0.1-0.6-0.3-1-0.6-1.3
			s-0.8-0.4-1.5-0.4c-0.7,0-1.2,0.1-1.6,0.4c-0.2,0.2-0.4,0.4-0.4,0.7c0,0.3,0.1,0.5,0.3,0.7c0.3,0.2,1,0.5,2.1,0.8s2,0.5,2.5,0.8
			s1,0.7,1.3,1.2s0.5,1.1,0.5,1.8c0,0.7-0.2,1.3-0.5,1.8s-0.9,1-1.5,1.3s-1.5,0.4-2.5,0.4c-1.4,0-2.6-0.3-3.3-1
			S384.9,374.1,384.7,372.9z"/>
		<path fill="#FFFFFF" d="M398.5,376.6v-9.5h-3.4v-1.9h9.1v1.9h-3.4v9.5H398.5z"/>
		<path fill="#FFFFFF" d="M405.7,376.6v-11.5h4.9c1.2,0,2.1,0.1,2.7,0.3s1,0.6,1.3,1.1s0.5,1.1,0.5,1.8c0,0.9-0.3,1.6-0.8,2.1
			s-1.3,0.9-2.3,1.1c0.5,0.3,0.9,0.6,1.2,1s0.8,1,1.3,1.9l1.4,2.2h-2.8l-1.7-2.5c-0.6-0.9-1-1.5-1.2-1.7s-0.5-0.4-0.7-0.5
			s-0.6-0.1-1.2-0.1h-0.5v4.8H405.7z M408.1,370h1.7c1.1,0,1.8,0,2.1-0.1s0.5-0.3,0.6-0.5s0.2-0.5,0.2-0.9c0-0.4-0.1-0.7-0.3-0.9
			s-0.5-0.4-0.9-0.4c-0.2,0-0.8,0-1.7,0h-1.8V370z"/>
		<path fill="#FFFFFF" d="M427.6,376.6h-2.5l-1-2.6h-4.6l-0.9,2.6h-2.5l4.5-11.5h2.4L427.6,376.6z M423.4,372.1l-1.6-4.3l-1.5,4.3
			H423.4z"/>
	</g>
	<g>
		<g>
			<path fill="#FFFFFF" d="M238.9,424.3h-4.7l-1.9-4.9h-8.6l-1.8,4.9h-4.6l8.4-21.5h4.6L238.9,424.3z M230.9,415.8l-3-8l-2.9,8
				H230.9z"/>
			<path fill="#FFFFFF" d="M241.2,424.3v-21.5h7c2.6,0,4.4,0.1,5.2,0.3c1.2,0.3,2.3,1,3.1,2.1c0.8,1.1,1.2,2.5,1.2,4.2
				c0,1.3-0.2,2.4-0.7,3.3s-1.1,1.6-1.8,2.1c-0.7,0.5-1.5,0.9-2.2,1c-1,0.2-2.5,0.3-4.5,0.3h-2.8v8.1H241.2z M245.5,406.5v6.1h2.4
				c1.7,0,2.9-0.1,3.4-0.3s1-0.6,1.4-1.1s0.5-1,0.5-1.7c0-0.8-0.2-1.4-0.7-1.9s-1-0.8-1.7-1c-0.5-0.1-1.6-0.1-3.1-0.1H245.5z"/>
			<path fill="#FFFFFF" d="M261.3,424.3V403h4.3v17.7h10.8v3.6H261.3z"/>
			<path fill="#FFFFFF" d="M279.4,424.3v-21.5h4.3v21.5H279.4z"/>
			<path fill="#FFFFFF" d="M301.6,416.4l4.2,1.3c-0.6,2.3-1.7,4.1-3.2,5.2c-1.5,1.1-3.4,1.7-5.7,1.7c-2.9,0-5.2-1-7-2.9
				c-1.8-1.9-2.8-4.6-2.8-8c0-3.6,0.9-6.3,2.8-8.3c1.8-2,4.3-3,7.3-3c2.6,0,4.8,0.8,6.4,2.3c1,0.9,1.7,2.2,2.2,4l-4.3,1
				c-0.3-1.1-0.8-2-1.6-2.6c-0.8-0.6-1.8-1-2.9-1c-1.6,0-2.9,0.6-3.9,1.7s-1.5,3-1.5,5.6c0,2.7,0.5,4.6,1.5,5.8s2.2,1.7,3.8,1.7
				c1.2,0,2.1-0.4,3-1.1S301.2,418,301.6,416.4z"/>
			<path fill="#FFFFFF" d="M328.9,424.3h-4.7l-1.9-4.9h-8.6l-1.8,4.9h-4.6l8.4-21.5h4.6L328.9,424.3z M320.9,415.8l-3-8l-2.9,8
				H320.9z"/>
			<path fill="#FFFFFF" d="M344.9,416.4l4.2,1.3c-0.6,2.3-1.7,4.1-3.2,5.2c-1.5,1.1-3.4,1.7-5.7,1.7c-2.9,0-5.2-1-7-2.9
				c-1.8-1.9-2.8-4.6-2.8-8c0-3.6,0.9-6.3,2.8-8.3c1.8-2,4.3-3,7.3-3c2.6,0,4.8,0.8,6.4,2.3c1,0.9,1.7,2.2,2.2,4l-4.3,1
				c-0.3-1.1-0.8-2-1.6-2.6c-0.8-0.6-1.8-1-2.9-1c-1.6,0-2.9,0.6-3.9,1.7s-1.5,3-1.5,5.6c0,2.7,0.5,4.6,1.5,5.8s2.2,1.7,3.8,1.7
				c1.2,0,2.1-0.4,3-1.1S344.6,418,344.9,416.4z"/>
			<path fill="#FFFFFF" d="M352.7,424.3v-21.5h4.3v21.5H352.7z"/>
			<path fill="#FFFFFF" d="M360.3,413.7c0-2.2,0.3-4,1-5.5c0.5-1.1,1.2-2.1,2-2.9c0.8-0.9,1.8-1.5,2.8-1.9c1.3-0.6,2.9-0.8,4.6-0.8
				c3.2,0,5.7,1,7.6,2.9c1.9,2,2.8,4.7,2.8,8.2c0,3.5-0.9,6.2-2.8,8.1s-4.4,2.9-7.6,2.9c-3.2,0-5.7-1-7.6-2.9
				C361.2,419.8,360.3,417.1,360.3,413.7z M364.8,413.6c0,2.4,0.6,4.3,1.7,5.5c1.1,1.3,2.5,1.9,4.3,1.9s3.1-0.6,4.3-1.9
				c1.1-1.2,1.7-3.1,1.7-5.6c0-2.5-0.5-4.3-1.6-5.5c-1.1-1.2-2.5-1.8-4.3-1.8s-3.2,0.6-4.3,1.8C365.3,409.3,364.8,411.1,364.8,413.6
				z M368.1,401.6l2-4.4h4.6l-4,4.4H368.1z"/>
			<path fill="#FFFFFF" d="M384.6,424.3v-21.5h4.2l8.8,14.3v-14.3h4v21.5h-4.4l-8.7-14v14H384.6z"/>
			<path fill="#FFFFFF" d="M417.6,424.3l-5.1-21.5h4.4l3.2,14.8l3.9-14.8h5.2l3.8,15l3.3-15h4.4l-5.2,21.5h-4.6l-4.3-16.1l-4.3,16.1
				H417.6z"/>
			<path fill="#FFFFFF" d="M442.8,424.3v-21.5h15.9v3.6h-11.6v4.8h10.8v3.6h-10.8v5.8h12v3.6H442.8z"/>
			<path fill="#FFFFFF" d="M462.9,402.9h8.6c1.7,0,3,0.1,3.8,0.2c0.8,0.1,1.6,0.4,2.2,0.9c0.7,0.4,1.2,1,1.6,1.8
				c0.4,0.7,0.7,1.6,0.7,2.5c0,1-0.3,1.9-0.8,2.8c-0.5,0.8-1.3,1.5-2.2,1.9c1.3,0.4,2.3,1,3,1.9s1.1,2,1.1,3.2c0,1-0.2,1.9-0.7,2.8
				c-0.5,0.9-1.1,1.7-1.9,2.2c-0.8,0.6-1.8,0.9-2.9,1c-0.7,0.1-2.5,0.1-5.2,0.1h-7.3V402.9z M467.2,406.4v5h2.8c1.7,0,2.7,0,3.1-0.1
				c0.7-0.1,1.3-0.3,1.8-0.8c0.4-0.4,0.6-1,0.6-1.7c0-0.7-0.2-1.2-0.5-1.6c-0.4-0.4-0.9-0.7-1.6-0.8c-0.4,0-1.7-0.1-3.7-0.1H467.2z
				 M467.2,415v5.7h4c1.6,0,2.6,0,3-0.1c0.6-0.1,1.2-0.4,1.6-0.9c0.4-0.5,0.6-1.1,0.6-1.8c0-0.6-0.2-1.2-0.5-1.6s-0.8-0.8-1.4-1
				s-1.9-0.3-3.8-0.3H467.2z"/>
		</g>
	</g>
</g>
</svg>
