<?xml version="1.0" encoding="utf-8"?>
<!-- Generator: Adobe Illustrator 18.1.1, SVG Export Plug-In . SVG Version: 6.00 Build 0)  -->
<svg version="1.1" id="Capa_1" xmlns="http://www.w3.org/2000/svg" xmlns:xlink="http://www.w3.org/1999/xlink" x="0px" y="0px"
	 viewBox="294 384 24 24" enable-background="new 294 384 24 24" xml:space="preserve">
<g>
	<path d="M317.6,391.7v-2.4c0-1.1-0.9-2-2.1-2h-2.5v-1.6c0-0.3-0.3-0.6-0.6-0.6c-0.3,0-0.6,0.2-0.6,0.6v1.6h-11.4v-1.6
		c0-0.3-0.3-0.6-0.6-0.6c-0.3,0-0.6,0.2-0.6,0.6v1.6h-2.5c-1.1,0-2.1,0.9-2.1,2v2.4H317.6z"/>
	<path d="M294.9,392.8v12.4c0,1.1,0.9,2,2.1,2h18.6c1.1,0,2.1-0.9,2.1-2v-12.4C317.6,392.8,294.9,392.8,294.9,392.8z M301.6,404
		h-5.1c-0.3,0-0.6-0.2-0.6-0.5l0,0c0-0.3,0.3-0.5,0.6-0.5h5.1c0.3,0,0.6,0.2,0.6,0.5l0,0C302.2,403.8,301.9,404,301.6,404z
		 M301.6,400.9h-5.1c-0.3,0-0.6-0.2-0.6-0.5l0,0c0-0.3,0.3-0.5,0.6-0.5h5.1c0.3,0,0.6,0.2,0.6,0.5l0,0
		C302.2,400.6,301.9,400.9,301.6,400.9z M301.6,397.5h-5.1c-0.3,0-0.6-0.2-0.6-0.5l0,0c0-0.3,0.3-0.5,0.6-0.5h5.1
		c0.3,0,0.6,0.2,0.6,0.5l0,0C302.2,397.2,301.9,397.5,301.6,397.5z M308.7,404h-5.1c-0.3,0-0.6-0.2-0.6-0.5l0,0
		c0-0.3,0.3-0.5,0.6-0.5h5.1c0.3,0,0.6,0.2,0.6,0.5l0,0C309.3,403.8,309,404,308.7,404z M308.7,400.9h-5.1c-0.3,0-0.6-0.2-0.6-0.5
		l0,0c0-0.3,0.3-0.5,0.6-0.5h5.1c0.3,0,0.6,0.2,0.6,0.5l0,0C309.3,400.6,309,400.9,308.7,400.9z M308.7,397.5h-5.1
		c-0.3,0-0.6-0.2-0.6-0.5l0,0c0-0.3,0.3-0.5,0.6-0.5h5.1c0.3,0,0.6,0.2,0.6,0.5l0,0C309.3,397.2,309,397.5,308.7,397.5z M315.8,404
		h-5.1c-0.3,0-0.6-0.2-0.6-0.5l0,0c0-0.3,0.3-0.5,0.6-0.5h5.1c0.3,0,0.6,0.2,0.6,0.5l0,0C316.4,403.8,316.1,404,315.8,404z
		 M315.8,400.9h-5.1c-0.3,0-0.6-0.2-0.6-0.5l0,0c0-0.3,0.3-0.5,0.6-0.5h5.1c0.3,0,0.6,0.2,0.6,0.5l0,0
		C316.4,400.6,316.1,400.9,315.8,400.9z M315.8,397.5h-5.1c-0.3,0-0.6-0.2-0.6-0.5l0,0c0-0.3,0.3-0.5,0.6-0.5h5.1
		c0.3,0,0.6,0.2,0.6,0.5l0,0C316.4,397.2,316.1,397.5,315.8,397.5z"/>
</g>
</svg>
