<?xml version="1.0" encoding="utf-8"?>
<!-- Generator: Adobe Illustrator 24.0.1, SVG Export Plug-In . SVG Version: 6.00 Build 0)  -->
<svg version="1.1" id="Capa_1" xmlns="http://www.w3.org/2000/svg" xmlns:xlink="http://www.w3.org/1999/xlink" x="0px" y="0px"
	 viewBox="0 0 960 560" style="enable-background:new 0 0 960 560;" xml:space="preserve">
<style type="text/css">
	.st0{fill:#1D1D1B;}
	.st1{fill:#0071CE;}
	.st2{fill:#CE0E2D;}
	.st3{fill:#00833E;}
	.st4{fill:#1D1E1C;}
</style>
<g>
	<g>
		<path class="st0" d="M352.57,319.4c10.37,0,17.39,6.76,17.39,17.13c0,10.27-7.39,16.99-18.13,16.99h-8.13v14.15h-12.28V319.4
			H352.57z M343.7,344.26h5.55c5.22,0,8.3-2.68,8.3-7.69c0-5.08-3.04-7.73-8.23-7.73h-5.62V344.26z"/>
		<path class="st0" d="M408.08,356.7c-1.3,7.26-8.13,11.84-17.76,11.84c-11.87,0-18.7-7.02-18.7-19.23
			c0-12.28,6.99-19.74,18.53-19.74c11.47,0,18.16,6.96,18.16,18.83v3.28h-25.05v0.6c0.1,4.85,2.88,7.86,7.39,7.86
			c3.45,0,5.82-1.27,6.62-3.45H408.08z M383.33,344.89h13.51c-0.2-4.35-2.68-6.92-6.62-6.92
			C386.34,337.97,383.63,340.68,383.33,344.89z"/>
		<path class="st0" d="M427,322.01v8.93h7.59v8.8H427v15.09c0,2.81,1.44,4.18,4.52,4.18c1.37,0,2.11-0.07,2.98-0.17v8.43
			c-1.27,0.27-3.41,0.47-5.65,0.47c-9.8,0-13.65-2.98-13.65-10.27v-17.73h-5.75v-8.8h5.75v-8.93H427z"/>
		<path class="st0" d="M438.86,330.44h11.51v6.12H451c0.9-3.75,4.52-6.69,9.03-6.69c1.47,0,3.28,0.2,4.18,0.57v10.07
			c-0.9-0.37-3.48-0.67-4.98-0.67c-5.12,0-8.56,2.94-8.56,8.13v19.7h-11.81V330.44z"/>
		<path class="st0" d="M464.37,349.04c0-12.04,7.26-19.47,18.97-19.47c11.77,0,18.97,7.36,18.97,19.47c0,12.28-7.02,19.5-18.97,19.5
			C471.43,368.54,464.37,361.28,464.37,349.04z M490.16,349.04c0-6.49-2.54-10.44-6.82-10.44s-6.82,3.95-6.82,10.44
			c0,6.66,2.48,10.47,6.82,10.47C487.68,359.51,490.16,355.66,490.16,349.04z"/>
		<path class="st0" d="M506.27,330.44h11.51v6.15h0.64c1.44-4.32,5.39-7.02,10.27-7.02c5.32,0,8.93,2.54,10.34,7.02h0.64
			c1.54-4.25,5.89-7.02,11.14-7.02c7.33,0,12.14,5.02,12.14,12.64v25.46h-11.81v-22.44c0-4.01-1.81-5.99-5.39-5.99
			c-3.38,0-5.49,2.44-5.49,6.09v22.34h-11.31v-22.65c0-3.75-1.91-5.79-5.32-5.79c-3.31,0-5.55,2.54-5.55,6.29v22.14h-11.81V330.44z"
			/>
		<path class="st0" d="M566.5,356.97c0-6.79,5.29-10.74,14.89-11.31l8.13-0.47v-2.91c0-2.51-1.87-4.01-5.15-4.01
			c-3.11,0-5.12,1.04-5.89,3.01h-10.64c0.54-7.23,7.12-11.71,17.19-11.71c10.27,0,16.12,4.68,16.12,12.71v25.39h-11.51v-4.62h-0.64
			c-1.67,3.18-5.75,5.18-10.47,5.18C571.38,368.24,566.5,363.79,566.5,356.97z M589.51,354.29v-2.44l-6.26,0.4
			c-3.51,0.27-5.35,1.64-5.35,3.88c0,2.37,1.97,3.85,4.95,3.85C586.6,359.98,589.51,357.5,589.51,354.29z"/>
		<path class="st0" d="M606.73,330.44h11.51v6.12h0.64c0.9-3.75,4.52-6.69,9.03-6.69c1.47,0,3.28,0.2,4.18,0.57v10.07
			c-0.9-0.37-3.48-0.67-4.98-0.67c-5.12,0-8.56,2.94-8.56,8.13v19.7h-11.81V330.44z"/>
		<path class="st0" d="M422.15,447.18l-7.69,55.13c-11.78,5.24-28.14,8.34-42.7,8.34c-34.85,0-54.48-18-54.48-49.74
			c0-38.94,29.28-65.11,72.64-65.11c14.23,0,26.01,2.78,34.36,5.24l-9.65,30.43c-5.89-1.96-13.58-3.93-23.07-3.93
			c-24.7,0-32.88,13.58-32.88,28.63c0,16.69,9.98,22.74,19.96,22.74c1.64,0,2.78-0.16,3.93-0.33l4.42-31.41H422.15z"/>
		<path class="st0" d="M539.14,508.53h-40.57l-2.13-18.49h-31.08l-7.2,18.49h-40.74l52.19-110.59h48.26L539.14,508.53z
			 M475.66,464.19h17.67l-4.09-34.03L475.66,464.19z"/>
		<path class="st0" d="M637.48,469.43c0,26.67-20.94,41.23-53.5,41.23c-15.71,0-29.94-3.44-40.73-8.34l10.63-30.76
			c7.53,4.25,18.32,9,32.07,9c9.16,0,10.63-2.13,10.63-3.76c0-9.16-43.84-0.16-43.84-37.79c0-25.2,19.8-43.19,51.7-43.19
			c12.27,0,26.83,2.62,38.28,6.38l-10.63,30.59c-6.38-3.27-18.16-6.54-29.45-6.54c-5.72,0-9.98,0.82-9.98,3.76
			C592.65,439.65,637.48,430.49,637.48,469.43z"/>
	</g>
	<g>
		<g>
			<g>
				<path class="st1" d="M443.07,100.62c-25.11,23.17-40.84,56.35-40.84,93.22c0,11.33,1.49,22.31,4.27,32.76h0.04
					c6,22.92,22.32,41.67,43.71,50.96v-0.01c4.2,1.95,8.89,3.04,13.82,3.04c18.2,0,32.97-14.76,32.97-32.96
					c0-10.63-5.05-20.09-12.86-26.11C459.09,201.47,432.37,158.01,443.07,100.62L443.07,100.62z"/>
				<path class="st2" d="M509.1,202.01c1.81,1.42,3.66,2.77,5.58,4.06c9.52,8.11,15.57,20.18,15.57,33.68
					c0,10.43-3.61,20.01-9.65,27.57c0,0-0.17,0.16-0.31,0.44c13.42-16.1,21.5-36.82,21.5-59.41c0-24.83-10.32-47.95-26.19-64.61
					c-15.9-16.68-26.22-39.85-26.22-64.72c0-10.34,1.69-20.28,4.81-29.58v-0.01c0,0-22.6,30.73-22.6,75.69
					c0,1.94,0.07,3.88,0.17,5.8C473.46,159.78,487.69,185.27,509.1,202.01z"/>
				<path class="st3" d="M519.21,113.28c-22.52-28.81-25.01-63.55-25.02-63.84c-3.12,9.29-4.81,19.23-4.81,29.58
					c0,24.86,10.33,48.03,26.22,64.72c15.87,16.66,26.19,39.78,26.19,64.61c0,22.59-8.08,43.31-21.5,59.41
					c-0.31,0.55-0.56,1.59,0.68,2.83c1.7,1.69,3.95-0.59,3.95-0.59c38.08-27.29,32.58-69.01,32.58-69.01
					C557.49,150.58,519.21,113.28,519.21,113.28z"/>
				<path class="st4" d="M478.85,51.33c-11.25,18.88-17.71,40.94-17.71,64.51c0,38.2,16.96,72.45,43.79,95.6
					c0,0,15.82,11.32,15.82,32.56c0,27.56-20.34,36.47-34.54,39.33c0,0-0.36,0.09-0.51-0.45c-0.15-0.55,0.24-0.66,0.24-0.66
					c13.63-5.29,23.29-18.53,23.29-34.02c0-18.6-13.73-28.49-13.73-28.49c-46.94-38.28-44.55-94.3-44.55-94.3
					c0-28.25,9.59-54.25,25.7-74.94c0,0,0.86-1.49,2.15-1.03C479.95,49.86,478.85,51.33,478.85,51.33z"/>
			</g>
		</g>
	</g>
</g>
</svg>
