<?xml version="1.0" encoding="utf-8"?>
<!-- Generator: Adobe Illustrator 16.0.3, SVG Export Plug-In . SVG Version: 6.00 Build 0)  -->
<!DOCTYPE svg PUBLIC "-//W3C//DTD SVG 1.1//EN" "http://www.w3.org/Graphics/SVG/1.1/DTD/svg11.dtd">
<svg version="1.1" id="Capa_1" xmlns="http://www.w3.org/2000/svg" xmlns:xlink="http://www.w3.org/1999/xlink" x="0px" y="0px"
	 width="512px" height="321.174px" viewBox="0 95.326 512 321.174" enable-background="new 0 95.326 512 321.174"
	 xml:space="preserve">
<g transform="translate(0.000000,512.000000) scale(0.100000,-0.100000)">
	<path fill="#FFFDFD" d="M2158.999,4160.996C2076.001,4135,2040,4072.002,2040,3954.004c0-43.008,3.999-95,10-113.008
		c11.001-40.996,51.001-85,91.001-101.992l30-12.002l-3.003-106.006L2165,3515l-332.002-2.998L1500,3510v85v85h38.999
		c31.001,0,43.999,5.996,60,25.996c27.002,35,26.001,57.002-2.998,91.006L1572.002,3825h-300
		c-281.001,0-301.001-0.996-321.001-19.004c-27.002-25-28.999-85.996-3.003-108.994c10-10,35-17.002,55-17.002H1040v-84.004v-82.998
		l-112.998-5.996c-67.002-2.998-128.003-11.006-150-21.006c-65-25.996-71.001-92.998-13.003-130.996
		c20-14.004,33.999-14.004,87.002-5c45,7.002,571.001,10,1748.999,7.998L4285,3355l72.998-22.998
		c297.998-92.002,505-307.998,589.004-612.998c25.996-92.002,25.996-416.006,0-508.008
		c-82.998-303.994-294.004-522.998-587.002-611.992c-72.998-23.008-87.998-23.008-675.996-29.004
		c-574.004-5-603.008-5.996-623.008-24.004c-26.992-25-27.998-78.994-0.996-105.996c19.004-19.004,32.998-20,445-20h425v-177.002
		c0-195.996,7.002-225.996,62.998-267.002C4020,955.996,4035,955,4250,955c215,0,230,0.996,257.002,20.996
		C4565,1019.004,4570,1042.002,4570,1292.002v227.002l55.996,31.992c228.008,130,399.004,360,466.006,626.006
		c20,75.996,22.998,113.994,22.998,287.998s-2.998,212.002-22.998,287.998C5002.998,3107.002,4745.996,3374.004,4395,3475
		c-62.002,17.998-125,27.998-202.002,32.002L4080,3512.998v82.998V3680h37.998c25,0,45,7.002,55,17.998
		c24.004,27.002,22.002,85-3.994,107.998c-20,18.008-40,19.004-321.006,19.004h-300l-23.994-27.998
		c-29.004-34.004-30-56.006-3.008-91.006c16.006-20,29.004-25.996,60-25.996H3620v-85v-85l-332.002,2.002L2955,3515l-2.998,105.996
		l-2.998,106.006l30,12.002c40,16.992,80,60.996,90.996,101.992c5.996,18.008,10,70,10,113.008
		c0,97.998-24.004,153.994-77.998,187.998c-37.002,22.998-40,22.998-427.002,25C2361.001,4167.998,2172.998,4165,2158.999,4160.996z
		 M2927.998,3947.998l2.998-67.998H2560h-370v62.998c0,35,2.998,67.002,7.002,70c3.999,4.004,168.999,6.006,366.997,5L2925,4015
		L2927.998,3947.998z M2800,3620v-110h-240h-240v110v110h240h240V3620z M1350,3595v-85h-80h-80v77.998
		c0,42.998,2.998,82.002,7.002,85c2.998,4.004,38.999,7.002,80,7.002H1350V3595z M3927.998,3592.998l2.998-82.998H3850h-80v85
		v85.996l77.998-2.998L3925,3675L3927.998,3592.998z M4417.998,1282.998L4415,1105h-165h-165l-2.998,155.996L4080,1417.002
		l107.002,5.996c60,4.004,132.998,12.998,162.998,21.006c30,6.992,57.998,13.994,62.998,15
		C4417.002,1460,4419.004,1380,4417.998,1282.998z"/>
	<path fill="#FFFDFD" d="M423.999,3334.004C238.999,3210,96.001,3005,32.998,2775C7.002,2680.996,5,2662.998,5,2470
		c0-179.004,2.998-215.996,22.002-292.998C95,1910,266.001,1680.996,493.999,1550.996L550,1519.004v-227.002
		c0-250,5-272.998,62.998-316.006C640,955.996,655,955,870,955s230,0.996,257.002,20.996
		c55.996,41.006,62.998,71.006,62.998,267.002V1420h800c787.002,0,800,0,820,20c27.002,27.002,25.996,80.996-0.996,105.996
		c-20,18.008-55,19.004-998.003,24.004L835,1575l-75,22.998c-291.001,90-502.998,309.004-586.001,607.998
		c-21.997,79.004-30,327.002-15,433.008C190,2850,300,3045,457.998,3170.996c85,67.002,92.002,76.006,92.002,115
		c0,23.008-7.998,39.004-26.001,53.008C488.999,3365.996,471.001,3365,423.999,3334.004z M817.998,1435
		c46.001-7.998,116.001-15,154.004-15h68.999l-3.003-157.002L1035,1105H870H705l-2.998,179.004
		c-2.002,161.992-1.001,177.998,13.999,171.992C725,1452.998,771.001,1442.998,817.998,1435z"/>
	<path fill="#FFFDFD" d="M2511.001,2987.002C2480,2972.002,2363.999,2795.996,2305,2675c-78.999-160-92.002-265.996-47.002-369.004
		c30-65.996,103.003-140,167.002-166.992c55-24.004,55-24.004,55-69.004c0-90.996,27.998-139.004,80-139.004s80,48.008,80,139.004
		c0,45,0,45,55,69.004c100,42.998,180.996,153.994,192.002,263.994c10.996,104.004-57.998,277.998-187.998,475
		C2622.002,2994.004,2579.004,3020,2511.001,2987.002z M2612.998,2732.998c61.006-102.002,115-220,122.998-270.996
		c8.008-49.004-7.998-101.006-43.994-144.004c-66.006-77.998-198.003-77.998-264.004,0c-58.999,71.006-60,136.006-1.997,261.006
		C2462.998,2660.996,2550,2810,2560,2810C2562.998,2810,2587.002,2775,2612.998,2732.998z"/>
</g>
</svg>
