<?xml version="1.0" encoding="utf-8"?>
<!-- Generator: Adobe Illustrator 18.1.1, SVG Export Plug-In . SVG Version: 6.00 Build 0)  -->
<svg version="1.1" xmlns="http://www.w3.org/2000/svg" xmlns:xlink="http://www.w3.org/1999/xlink" x="0px" y="0px"
	 viewBox="-267 469 24 24" enable-background="new -267 469 24 24" xml:space="preserve">
<g id="Layer_1" display="none">
	<path display="inline" fill="none" d="M-267,469h24v24h-24V469z"/>
	<path display="inline" fill="#FFFFFF" d="M-255,471c-5.5,0-10,4.5-10,10s4.5,10,10,10c5.5,0,10-4.5,10-10S-249.5,471-255,471z
		 M-259.9,487.3c0.4-0.9,3-1.8,4.9-1.8s4.5,0.9,4.9,1.8c-1.4,1.1-3.1,1.7-4.9,1.7C-256.9,489-258.6,488.4-259.9,487.3z
		 M-248.6,485.8c-1.4-1.7-4.9-2.3-6.4-2.3c-1.5,0-4.9,0.6-6.4,2.3c-1-1.3-1.6-3-1.6-4.8c0-4.4,3.6-8,8-8s8,3.6,8,8
		C-247,482.8-247.6,484.5-248.6,485.8z M-255,475c-1.9,0-3.5,1.6-3.5,3.5s1.6,3.5,3.5,3.5s3.5-1.6,3.5-3.5S-253.1,475-255,475z
		 M-255,480c-0.8,0-1.5-0.7-1.5-1.5s0.7-1.5,1.5-1.5s1.5,0.7,1.5,1.5S-254.2,480-255,480z"/>
</g>
<g id="Layer_2">
	<g id="gas_tank">
		<path fill="#008445" d="M-263.2,479.5c0-0.1,0.2-0.2,0.5-0.2h1.6v-0.5h-1.6c-0.9,0-1.6,0.3-1.6,0.7v0.7h1.1V479.5z"/>
		<path fill="#008445" d="M-246.4,479.5v0.7h1.1v-0.7c0-0.4-0.7-0.7-1.6-0.7h-1.6v0.5h1.6C-246.6,479.2-246.4,479.3-246.4,479.5z"/>
		<path fill="#0171CE" d="M-254.8,485c3.5,0,6.3-1.3,6.3-3s-2.8-3-6.3-3s-6.3,1.3-6.3,3C-261.1,483.6-258.3,485-254.8,485z
			 M-254.8,479.5c2.9,0,5.3,1.1,5.3,2.5s-2.4,2.5-5.3,2.5c-2.9,0-5.3-1.1-5.3-2.5C-260.1,480.6-257.7,479.5-254.8,479.5z"/>
		<path fill="#008445" d="M-246.9,486c0.9,0,1.6-0.3,1.6-0.7v-0.5h-1.1v0.5c0,0.1-0.2,0.2-0.5,0.2h-15.8c-0.3,0-0.5-0.1-0.5-0.2
			v-0.5h-1.1v0.5c0,0.4,0.7,0.7,1.6,0.7H-246.9z"/>
		<path fill="#008445" d="M-243.3,485.2v-5.7c0-1-1.6-1.7-3.7-1.7h-1.6v-2.5h1.1c0.3,0,0.5-0.1,0.5-0.2v-1c0-0.1-0.2-0.2-0.5-0.2
			h-14.7c-0.3,0-0.5,0.1-0.5,0.2v1c0,0.1,0.2,0.2,0.5,0.2h1.1v2.5h-1.6c-2,0-3.7,0.8-3.7,1.7v5.7c0,0.8,1.1,1.4,2.6,1.7v1.3h-1.6
			v0.5h21v-0.5h-1.6v-1.3C-244.3,486.7-243.3,486-243.3,485.2z M-261.6,474.3h13.7v0.5h-13.7V474.3z M-260.1,475.3h10.5v2.5h-2.6
			V476c0-0.1-0.2-0.2-0.5-0.2h-4.2c-0.3,0-0.5,0.1-0.5,0.2v0.2h-1.1c-0.3,0-0.5,0.1-0.5,0.2v0.7c0,0.1,0.2,0.2,0.5,0.2h1.1v0.2h-2.6
			V475.3z M-255.3,477v0.7h-1.1v-1.5h3.2v1.5h-1.1V477H-255.3z M-257.4,477h-0.5v-0.2h0.5V477z M-265.3,485.2v-5.7
			c0-0.7,1.2-1.2,2.6-1.2h15.8c1.5,0,2.6,0.6,2.6,1.2v5.7c0,0.7-1.2,1.2-2.6,1.2h-15.8C-264.1,486.4-265.3,485.9-265.3,485.2z
			 M-250.6,486.9h1.1v0.5h-1.1V486.9z M-255.3,486.9h1.1v0.5h-1.1V486.9z M-260.1,486.9h1.1v0.5h-1.1V486.9z M-246.9,488.2h-15.8
			v-1.2h1.6v0.7c0,0.1,0.2,0.2,0.5,0.2h2.1c0.3,0,0.5-0.1,0.5-0.2v-0.7h1.6v0.7c0,0.1,0.2,0.2,0.5,0.2h2.1c0.3,0,0.5-0.1,0.5-0.2
			v-0.7h1.6v0.7c0,0.1,0.2,0.2,0.5,0.2h2.1c0.3,0,0.5-0.1,0.5-0.2v-0.7h1.6V488.2z"/>
		<path fill="#D02030" d="M-254.8,484c1.7,0,3.2-0.7,3.2-1.5c0-0.8-2.5-2.2-2.7-2.4c-0.2-0.1-0.5-0.1-0.8,0c0,0,0,0-0.1,0
			c-0.3,0.2-2.7,1.6-2.7,2.4C-258,483.3-256.6,484-254.8,484z M-255.3,483.2c0.1-0.3,0.3-0.5,0.5-0.8c0.2,0.3,0.4,0.5,0.5,0.8
			c0,0.1-0.2,0.2-0.5,0.2S-255.3,483.4-255.3,483.2z M-254.8,480.6c0.9,0.6,2.1,1.5,2.1,1.8c0,0.2-0.2,0.5-0.5,0.7
			c-0.3-0.5-0.6-1-1.1-1.5c-0.1-0.1-0.4-0.2-0.7-0.1c-0.1,0-0.2,0.1-0.3,0.1c-0.4,0.5-0.8,1-1.1,1.5c-0.3-0.2-0.5-0.4-0.5-0.7
			C-256.9,482.1-255.8,481.2-254.8,480.6z"/>
	</g>
</g>
</svg>
