<svg width="47.99999999999999" height="47.99999999999999" xmlns="http://www.w3.org/2000/svg">

 <g>
  <title>Layer 1</title>
  <path fill="#0171ce" id="svg_1" d="m20.45,31.75q1.15,1.15 3.325,1.075q2.175,-0.075 3.175,-1.625l8.95,-14q0.35,-0.55 -0.075,-0.975q-0.425,-0.425 -0.975,-0.075l-13.85,9.05q-1.5,1 -1.6,3.2q-0.1,2.2 1.05,3.35zm-10.75,8.25q-0.85,0 -1.675,-0.425q-0.825,-0.425 -1.225,-1.225q-1.3,-2.4 -2,-4.875t-0.7,-5.275q0,-4.15 1.575,-7.825t4.275,-6.4q2.7,-2.725 6.325,-4.325t7.725,-1.6q2.25,0 4.7,0.575t4.85,1.925q1,0.55 1.1,1.325q0.1,0.775 -0.5,1.275q-0.4,0.3 -0.925,0.375q-0.525,0.075 -0.975,-0.175q-2.1,-1.15 -4.35,-1.725q-2.25,-0.575 -3.9,-0.575q-7,0 -11.95,5q-4.95,5 -4.95,12.15q0,2.25 0.625,4.55t1.775,4.25l28.95,0q1.1,-1.8 1.75,-4.2q0.65,-2.4 0.65,-4.7q0,-1.85 -0.475,-3.95t-1.625,-4q-0.3,-0.5 -0.2,-1.025q0.1,-0.525 0.5,-0.875q0.55,-0.45 1.2,-0.325q0.65,0.125 1,0.725q1.25,2.3 1.9,4.575q0.65,2.275 0.7,4.575q0.05,3 -0.625,5.65q-0.675,2.65 -2.025,4.9q-0.6,1.15 -1.275,1.4q-0.675,0.25 -1.675,0.25l-28.55,0zm14.3,-16z"/>
 </g>
</svg>