<?xml version="1.0" encoding="utf-8"?>
<!-- Generator: Adobe Illustrator 26.0.0, SVG Export Plug-In . SVG Version: 6.00 Build 0)  -->
<svg version="1.1" id="Capa_1" xmlns="http://www.w3.org/2000/svg" xmlns:xlink="http://www.w3.org/1999/xlink" x="0px" y="0px"
	 viewBox="0 0 48 48" style="enable-background:new 0 0 48 48;" xml:space="preserve">
<style type="text/css">
	.st0{fill:#008445;}
</style>
<path class="st0" d="M7.2,42.2c-0.9,0-1.7-0.3-2.3-1c-0.7-0.6-1-1.4-1-2.3V5.7L7.2,9l3.3-3.3L13.9,9l3.4-3.3L20.6,9L24,5.7L27.4,9
	l3.4-3.3L34.1,9l3.3-3.3L40.8,9l3.3-3.3V39c0,0.9-0.3,1.7-1,2.3c-0.6,0.6-1.4,1-2.3,1H7.2z M7.2,39h15.3V24.9H7.2V39z M25.6,39h15.2
	v-5.5H25.6V39z M25.6,30.4h15.2v-5.5H25.6V30.4z M7.2,21.7h33.7v-5.9H7.2V21.7z"/>
</svg>
