<svg width="48" height="48" xmlns="http://www.w3.org/2000/svg" version="1.1" xml:space="preserve">
 <g>
  <title>Layer 1</title>
  <path stroke="null" class="st0" d="m8.76856,39.79958c-0.81597,0 -1.54128,-0.26264 -2.08526,-0.87547c-0.63464,-0.52528 -0.90663,-1.22566 -0.90663,-2.01359l0,-29.06575l2.99189,2.88907l2.99189,-2.88907l3.08255,2.88907l3.08255,-2.88907l2.99189,2.88907l3.08255,-2.88907l3.08255,2.88907l3.08255,-2.88907l2.99189,2.88907l2.99189,-2.88907l3.08255,2.88907l2.99189,-2.88907l0,29.15329c0,0.78793 -0.27199,1.48831 -0.90663,2.01359c-0.54398,0.52528 -1.26929,0.87547 -2.08526,0.87547l-30.46287,0l0,-0.08755zm0,-2.80152l13.87149,0l0,-12.34419l-13.87149,0l0,12.34419zm16.68205,0l13.78082,0l0,-4.81511l-13.78082,0l0,4.81511zm0,-7.52908l13.78082,0l0,-4.81511l-13.78082,0l0,4.81511zm-16.68205,-7.61663l30.55353,0l0,-5.1653l-30.55353,0l0,5.1653z" fill="#0171ce" id="svg_1"/>
 </g>

</svg>