<?xml version="1.0" encoding="utf-8"?>
<!-- Generator: Adobe Illustrator 26.0.0, SVG Export Plug-In . SVG Version: 6.00 Build 0)  -->
<svg version="1.1" xmlns="http://www.w3.org/2000/svg" xmlns:xlink="http://www.w3.org/1999/xlink" x="0px" y="0px"
	 viewBox="0 0 48 48" style="enable-background:new 0 0 48 48;" xml:space="preserve">
<style type="text/css">
	.st0{fill:#FFFFFF;stroke:#FFFFFF;stroke-miterlimit:10;}
</style>
<g id="Capa_2">
</g>
<g id="Capa_1">
	<path class="st0" d="M11,28c0,2.1,0.5,4.1,1.4,5.9c0.9,1.8,2.3,3.4,4,4.6c-0.1-0.4-0.2-0.8-0.3-1.2C16,36.9,16,36.5,16,36.1
		c0-1.1,0.2-2.1,0.6-3c0.4-0.9,1-1.8,1.8-2.5L24,25l5.6,5.5c0.8,0.8,1.4,1.6,1.8,2.5c0.4,0.9,0.6,1.9,0.6,3c0,0.4,0,0.8-0.1,1.2
		c-0.1,0.4-0.2,0.8-0.3,1.2c1.7-1.2,3-2.8,4-4.6c0.9-1.8,1.4-3.8,1.4-5.9c0-1.8-0.4-3.6-1.2-5.3C35.1,21,34,19.4,32.5,18
		c-0.7,0.5-1.4,0.9-2.2,1.2c-0.8,0.3-1.5,0.4-2.3,0.4c-2,0-3.7-0.7-5-2.1s-2-3.1-2-5.2v-1c-1.5,1.1-2.9,2.3-4.1,3.7
		s-2.3,2.7-3.1,4.2c-0.9,1.4-1.5,2.9-2,4.5C11.2,25.1,11,26.6,11,28z M24,29.2l-3.5,3.5c-0.5,0.5-0.8,1-1.1,1.5S19,35.4,19,36.1
		c0,1.4,0.5,2.5,1.5,3.5c1,1,2.1,1.4,3.5,1.4s2.6-0.5,3.5-1.4c1-1,1.5-2.1,1.5-3.5c0-0.7-0.1-1.3-0.4-1.8s-0.6-1.1-1.1-1.5L24,29.2z
		 M24,6v6.6c0,1.1,0.4,2.1,1.2,2.9c0.8,0.8,1.7,1.1,2.9,1.1c0.6,0,1.2-0.1,1.7-0.4c0.5-0.2,1-0.6,1.4-1.1L32,14
		c2.5,1.4,4.4,3.4,5.8,5.9c1.4,2.5,2.2,5.2,2.2,8.1c0,4.5-1.5,8.2-4.7,11.3C32.2,42.5,28.5,44,24,44s-8.2-1.5-11.4-4.7
		C9.6,36.2,8,32.5,8,28c0-4.3,1.4-8.4,4.3-12.3S19.1,8.5,24,6z"/>
</g>
</svg>
