<?xml version="1.0" encoding="utf-8"?>
<!-- Generator: Adobe Illustrator 18.1.1, SVG Export Plug-In . SVG Version: 6.00 Build 0)  -->
<svg version="1.1" id="Capa_1" xmlns="http://www.w3.org/2000/svg" xmlns:xlink="http://www.w3.org/1999/xlink" x="0px" y="0px"
	 viewBox="294 384 24 24" enable-background="new 294 384 24 24" xml:space="preserve">
<g>
	<path d="M295.3,399.9c0,0.6,0.5,1,1,1h0.5c0-0.8,0.3-1.5,0.8-2h-1.3C295.8,398.9,295.3,399.4,295.3,399.9z"/>
	<path d="M317.6,396.2l-1.1-3.4c-0.1-0.4-0.5-0.7-0.9-0.7l-4.4-0.3c-0.6,0-1.1,0.4-1.1,1v6.2h-7.5c0.5,0.5,0.8,1.2,0.8,2h7.2
		c0-1.7,1.5-3.1,3.3-3.1c1.7,0,3.2,1.3,3.3,3c0.3-0.2,0.5-0.5,0.5-0.8v-3.5C317.7,396.4,317.7,396.3,317.6,396.2z M316.2,396.4h-4
		c-0.3,0-0.5-0.2-0.5-0.4v-2.9c0-0.3,0.2-0.5,0.5-0.4l3.2,0.2c0.2,0,0.4,0.1,0.4,0.3l0.8,2.6C316.8,396.1,316.5,396.4,316.2,396.4z
		 M316.9,396.4L316.9,396.4L316.9,396.4L316.9,396.4z"/>
	<path d="M298.5,398.4h6.7c2.4,0,4.3-1.8,4.3-4.1l0,0c0-2.3-1.9-4.1-4.3-4.1h-6.7c-2.4,0-4.3,1.8-4.3,4.1l0,0
		C294.2,396.6,296.2,398.4,298.5,398.4z"/>
	<g>
		<g>
			<g>
				<path fill="#0071CE" d="M301,392.8c-0.6,0.5-1,1.3-1,2.1c0,0.3,0,0.5,0.1,0.7h0c0.1,0.5,0.5,0.9,1,1.2l0,0
					c0.1,0,0.2,0.1,0.3,0.1c0.4,0,0.8-0.3,0.8-0.7c0-0.2-0.1-0.5-0.3-0.6C301.4,395.1,300.8,394.1,301,392.8L301,392.8z"/>
				<path fill="#CE0E2D" d="M302.6,395.1c0,0,0.1,0.1,0.1,0.1c0.2,0.2,0.4,0.5,0.4,0.8c0,0.2-0.1,0.5-0.2,0.6c0,0,0,0,0,0
					c0.3-0.4,0.5-0.8,0.5-1.3c0-0.6-0.2-1.1-0.6-1.5c-0.4-0.4-0.6-0.9-0.6-1.5c0-0.2,0-0.5,0.1-0.7l0,0c0,0-0.5,0.7-0.5,1.7
					c0,0,0,0.1,0,0.1C301.7,394.2,302.1,394.7,302.6,395.1z"/>
				<path fill="#00833E" d="M302.8,393.1c-0.5-0.7-0.6-1.4-0.6-1.4c-0.1,0.2-0.1,0.4-0.1,0.7c0,0.6,0.2,1.1,0.6,1.5
					c0.4,0.4,0.6,0.9,0.6,1.5c0,0.5-0.2,1-0.5,1.3c0,0,0,0,0,0.1c0,0,0.1,0,0.1,0c0.9-0.6,0.8-1.6,0.8-1.6
					C303.7,393.9,302.8,393.1,302.8,393.1z"/>
				<path fill="#575756" d="M301.9,391.7c-0.3,0.4-0.4,0.9-0.4,1.5c0,0.9,0.4,1.6,1,2.2c0,0,0.4,0.3,0.4,0.7c0,0.6-0.5,0.8-0.8,0.9
					c0,0,0,0,0,0c0,0,0,0,0,0c0.3-0.1,0.5-0.4,0.5-0.8c0-0.4-0.3-0.6-0.3-0.6c-1.1-0.9-1-2.1-1-2.1
					C301.2,392.7,301.4,392.1,301.9,391.7C301.8,391.7,301.8,391.6,301.9,391.7C301.9,391.7,301.9,391.7,301.9,391.7z"/>
			</g>
		</g>
	</g>
	<path d="M299.1,389.6h2c0.3,0,0.6-0.3,0.6-0.6s-0.3-0.6-0.6-0.6h-2c-0.3,0-0.6,0.3-0.6,0.6S298.8,389.6,299.1,389.6z"/>
	<path d="M300.2,398.9c-1.2,0-2.2,0.9-2.2,2.1s1,2.1,2.2,2.1s2.2-0.9,2.2-2.1S301.4,398.9,300.2,398.9z M300.2,402
		c-0.6,0-1.1-0.5-1.1-1s0.5-1,1.1-1s1.1,0.5,1.1,1S300.7,402,300.2,402z"/>
	<path d="M313.9,398.9c-1.2,0-2.2,0.9-2.2,2.1s1,2.1,2.2,2.1s2.2-0.9,2.2-2.1S315.1,398.9,313.9,398.9z M313.9,402
		c-0.6,0-1.1-0.5-1.1-1s0.5-1,1.1-1c0.6,0,1.1,0.5,1.1,1S314.5,402,313.9,402z"/>
</g>
</svg>
