<?xml version="1.0" encoding="utf-8"?>
<!-- Generator: Adobe Illustrator 18.1.1, SVG Export Plug-In . SVG Version: 6.00 Build 0)  -->
<svg version="1.1" xmlns="http://www.w3.org/2000/svg" xmlns:xlink="http://www.w3.org/1999/xlink" x="0px" y="0px"
	 viewBox="359.1 442.3 24 24" enable-background="new 359.1 442.3 24 24" xml:space="preserve">
<g id="Capa_1" display="none">
	<g display="inline">
		<path fill="#FFFFFF" d="M371.2,447.4c0.3,0,0.6,0.2,0.6,0.5l0,0.1v1.2c0,0.3-0.3,0.6-0.6,0.6c-0.3,0-0.6-0.2-0.6-0.5l0-0.1V448
			C370.6,447.6,370.8,447.4,371.2,447.4z M371.2,452.1c0.3,0,0.6,0.3,0.6,0.6v8.2c0,0.3-0.3,0.6-0.6,0.6s-0.6-0.3-0.6-0.6v-8.2
			C370.6,452.3,370.8,452.1,371.2,452.1z M371.2,443.9c-5.8,0-10.6,4.7-10.6,10.5c0,5.8,4.7,10.5,10.6,10.5
			c5.8,0,10.6-4.7,10.6-10.5C381.7,448.6,377,443.9,371.2,443.9z M371.2,442.7c6.5,0,11.7,5.2,11.7,11.7c0,6.4-5.3,11.7-11.7,11.7
			s-11.7-5.2-11.7-11.7C359.4,447.9,364.7,442.7,371.2,442.7z"/>
	</g>
</g>
<g id="Layer_2" display="none">
	<g display="inline">
		<path fill="#FFFFFF" d="M368.5,448.2c0.9-0.8,2.2-1.1,3.4-0.9c1.7,0.3,3,1.7,3.3,3.3c0.3,1.8-0.5,3.5-2.1,4.4
			c-0.9,0.5-1.4,1.3-1.4,2.2v0.3c0,0.3-0.3,0.6-0.6,0.6s-0.6-0.3-0.6-0.6v-0.3c0-1.3,0.8-2.5,2-3.2c1.1-0.6,1.7-1.8,1.5-3.1
			c-0.2-1.2-1.2-2.2-2.4-2.4c-0.9-0.2-1.8,0.1-2.5,0.6c-0.7,0.6-1.1,1.4-1.1,2.3c0,0.3-0.3,0.6-0.6,0.6c-0.3,0-0.6-0.3-0.6-0.6
			C367,450.1,367.6,449,368.5,448.2z M371.2,459.1c0.3,0,0.6,0.2,0.6,0.5l0,0.1v1.2c0,0.3-0.3,0.6-0.6,0.6c-0.3,0-0.6-0.2-0.6-0.5
			l0-0.1v-1.2C370.6,459.4,370.8,459.1,371.2,459.1z M371.2,443.7c-5.9,0-10.7,4.8-10.7,10.6c0,5.9,4.8,10.6,10.7,10.6
			c5.9,0,10.7-4.8,10.7-10.6C381.9,448.5,377.1,443.7,371.2,443.7z M371.2,442.6c6.6,0,11.9,5.3,11.9,11.8c0,6.5-5.3,11.8-11.9,11.8
			c-6.6,0-11.9-5.3-11.9-11.8C359.3,447.9,364.6,442.6,371.2,442.6z"/>
	</g>
</g>
<g id="Layer_3">
	<g>
		<path fill="#FFFFFF" d="M373.6,444.8l0,3.8l4.2,0L373.6,444.8z M372.3,444h-8.9v20.8h15.3l0-15l-5.7,0c-0.4,0-0.6-0.3-0.6-0.6
			L372.3,444z M372.9,442.8C372.9,442.8,372.9,442.8,372.9,442.8C372.9,442.8,372.9,442.8,372.9,442.8c0.2,0,0.4,0.1,0.5,0.3
			l6.3,5.7c0.1,0.1,0.2,0.3,0.2,0.4c0,0,0,0,0,0l0,16.1c0,0.2-0.1,0.3-0.2,0.4c-0.1,0.1-0.3,0.2-0.5,0.2h-16.6
			c-0.4,0-0.6-0.3-0.6-0.6v-21.9c0-0.3,0.3-0.6,0.6-0.6L372.9,442.8L372.9,442.8z"/>
	</g>
</g>
<g id="Layer_5" display="none">
	<g display="inline">
		<path fill="#FFFFFF" d="M371.1,446.7c-1,0-1.9,0.4-2.5,1.1c-0.3,0.4-0.7,1-0.5,1.8l0.5,3.7c0.2,1.3,1.2,2.2,2.6,2.2
			c1.4,0,2.4-0.9,2.6-2.2l0.5-3.6c0.1-0.9-0.2-1.5-0.5-1.8C373,447.2,372,446.7,371.1,446.7z M371.1,445.6c1.3,0,2.6,0.6,3.4,1.5
			c0.7,0.8,1,1.8,0.8,2.8l-0.5,3.6c-0.3,1.9-1.8,3.2-3.8,3.2c-2,0-3.5-1.3-3.8-3.2l-0.5-3.7c-0.2-1,0.1-2,0.8-2.8
			C368.5,446.1,369.8,445.6,371.1,445.6z M371.1,443.7c-5.8,0-10.6,4.7-10.6,10.5c0,2.3,0.7,4.4,2,6.1c0.6-1.3,2.4-2.2,4.5-2.2
			c0.5,0,1.1,0.1,1.6,0.2l0.3,0.1c0.4,0.1,0.8,0.2,1.2,0.3l0.2,0.1c0.3,0.1,0.5,0.1,0.8,0.1c0.2,0,0.6-0.1,1-0.2l0.4-0.1
			c0.7-0.2,1.8-0.4,2.7-0.4c2.2,0,4,0.9,4.5,2.2c1.2-1.7,1.9-3.8,1.9-6.1C381.6,448.4,376.9,443.7,371.1,443.7z M375.2,459.2
			c-0.6,0-1.4,0.1-2.4,0.4l-0.4,0.1c-0.5,0.1-0.9,0.2-1.3,0.2c-0.4,0-0.8-0.1-1.1-0.2l-0.2,0c-0.4-0.1-0.7-0.2-1.1-0.2l-0.3-0.1
			c-0.5-0.1-1-0.2-1.4-0.2c-1.9,0-3.5,0.9-3.5,1.9v0.3c1.9,2,4.6,3.3,7.6,3.3s5.7-1.3,7.6-3.3v-0.3
			C378.7,460.1,377.2,459.2,375.2,459.2z M371.1,442.5c6.5,0,11.7,5.3,11.7,11.7c0,3-1.2,5.8-3,7.8c0,0.1-0.1,0.1-0.1,0.1
			c-2.1,2.3-5.2,3.7-8.6,3.7c-3.4,0-6.4-1.4-8.6-3.7c-0.1,0-0.1-0.1-0.1-0.1c-1.9-2.1-3-4.8-3-7.8
			C359.4,447.8,364.6,442.5,371.1,442.5z"/>
	</g>
</g>
<g id="Layer_4" display="none">
	<g display="inline">
		<path fill="#FFFFFF" d="M382.9,442.9c-0.2-0.2-0.6-0.2-0.8,0l-3.5,3.5l-8.2-0.9c-0.2,0-0.4,0-0.5,0.2l-10.4,10.2
			c-0.2,0.2-0.2,0.6,0,0.8l9.4,9.3c0.2,0.2,0.6,0.2,0.8,0l10.4-10.2c0.1-0.1,0.2-0.3,0.2-0.5l-0.9-8.1l3.5-3.5
			C383.1,443.4,383.1,443.1,382.9,442.9z M368.1,450.6l0.8-0.8c0.7-0.7,1.8-0.7,2.5,0l0.2,0.2c0.7,0.7,0.7,1.8,0,2.5l-0.8,0.8
			c-0.7,0.7-1.8,0.7-2.5,0l-0.2-0.2C367.4,452.5,367.4,451.3,368.1,450.6z M372.3,459.4l-0.8,0.8c-0.7,0.7-1.8,0.7-2.5,0l-0.2-0.2
			c-0.7-0.7-0.7-1.8,0-2.5l0.8-0.8c0.7-0.7,1.8-0.7,2.5,0l0.2,0.2C373,457.6,373,458.7,372.3,459.4z M374.7,455.6L374.7,455.6
			l-8.9,0c-0.3,0-0.6-0.3-0.6-0.6c0-0.3,0.2-0.6,0.5-0.6l0.1,0h8.9c0.3,0,0.6,0.3,0.6,0.6C375.3,455.3,375,455.6,374.7,455.6z"/>
		<path fill="#FFFFFF" d="M369.2,452.5c0.2,0.2,0.6,0.2,0.9,0l0.8-0.8c0.2-0.2,0.2-0.6,0-0.8l-0.2-0.2c-0.2-0.2-0.6-0.2-0.9,0
			l-0.8,0.8c-0.2,0.2-0.2,0.6,0,0.8L369.2,452.5z"/>
		<path fill="#FFFFFF" d="M371.3,457.5c-0.2-0.2-0.6-0.2-0.9,0l-0.8,0.8c-0.2,0.2-0.2,0.6,0,0.8l0.2,0.2c0.2,0.2,0.6,0.2,0.9,0
			l0.8-0.8c0.2-0.2,0.2-0.6,0-0.8L371.3,457.5z"/>
	</g>
</g>
</svg>
