<?xml version="1.0" encoding="utf-8"?>
<!-- Generator: Adobe Illustrator 18.1.1, SVG Export Plug-In . SVG Version: 6.00 Build 0)  -->
<svg version="1.1" id="Layer_1" xmlns="http://www.w3.org/2000/svg" xmlns:xlink="http://www.w3.org/1999/xlink" x="0px" y="0px"
	 viewBox="0 0 560 960" enable-background="new 0 0 560 960" xml:space="preserve">
<title>loudspeake</title>
<path fill="#0171CE" d="M0,528.8c-0.3-26.6,9.8-50.1,33.6-57.8l0.6-1c0.7-1.4,1.6-2.6,2.7-3.6c1.4-1.1,3.1-1.8,4.8-2.3l1.3-0.5
	c115.1-42.3,167-105.8,196.9-148.9c0,42.3,10.6,97.5,29.3,150.9c19.2,54.7,46.9,108.1,80.7,144.7l0,0c-35.2-10-79.4-22.8-151.3-13
	c-3,7.3-4.7,15.1-5.1,23.1c-0.5,5,1.2,10,4.6,13.7l1.1,1c4.6,4.1,6.8,6.2,7.8,9.9c0.7,4.9,0.5,9.9-0.6,14.7l-0.4,3.1
	c-1.7,13.4,4.8,16.1,11.2,18.8s11.4,4.9,14,12.3c0.2,0.6,0.2,1.2,0,1.8c-2.6,13.7-11.4,21.1-20.2,28.7c-2.1,1.9-4.3,3.7-6.2,5.5
	h-0.3c-17.9,14.3-29.9,10.5-39.1-1c-7.2-9.1-12.2-22.8-16.9-35.6l-2-5.6c-7.5-22.5-13.6-45.5-18.2-68.8l-1.5-6.8
	c-4,1.1-8.1,2.3-12.4,3.6l0,0c-5.5,1.6-10.9,3.3-16.4,5.1l-1.7,0.6c-1.8,1.2-4.2,1.2-6.1,0c-28.8,9.6-52.8-4.1-68.8-26.9
	c-6.8-9.6-12-20.2-15.5-31.4C2.2,551.9,0.2,540.4,0,528.8z M400.2,294.3c-6,4.6-14.6,3.4-19.2-2.6c0-0.1-0.1-0.1-0.1-0.2l-0.3-0.4
	c-4.3-6.1-3.1-14.5,2.9-19.1c22.1-16.4,44.2-32.9,66.4-48.9c2.9-2.1,6.5-3,10.1-2.6c3.6,0.6,6.9,2.5,9.1,5.5v0.2
	c2.1,2.9,3,6.6,2.4,10.2c-0.5,3.7-2.5,6.9-5.5,9.1L400.2,294.3z M472.1,557.3L472.1,557.3c-3.6-0.1-7.1-1.6-9.6-4.2
	c-2.5-2.6-3.9-6.1-3.9-9.8V543c0-7.6,6.1-13.7,13.7-13.7c0.1,0,0.2,0,0.3,0c24.5,0,49.4,0.9,73.8,1.4c7.7,0.2,13.7,6.5,13.7,14.1
	c-0.1,3.7-1.6,7.2-4.2,9.8c-2.6,2.6-6.2,4-9.8,3.9l-73.8-1.4L472.1,557.3z M474.3,485.7c-7.5,0.6-14.1-4.9-14.8-12.4
	c0-0.1,0-0.1,0-0.2v-0.3c-0.4-7.5,5.1-14,12.6-14.7c22.8-1.8,46-3.8,68.8-5.2c7.6-0.5,14.2,5.2,14.8,12.8l0,0
	c0.3,3.7-0.9,7.3-3.3,10.1c-2.4,2.8-5.8,4.5-9.5,4.8C520.8,482.6,496.5,484.5,474.3,485.7L474.3,485.7z M464.4,419.2
	c-7.4,2.1-15.1-2.2-17.2-9.6c0,0,0,0,0,0l0,0c-1-3.5-0.6-7.3,1.2-10.5c1.8-3.2,4.8-5.6,8.3-6.7c23.7-6.2,47.4-13.9,71.1-20.3
	c3.5-1,7.3-0.6,10.5,1.2c3.2,1.8,5.6,4.7,6.6,8.2l0,0c2.1,7.4-2.2,15.1-9.6,17.2L464.4,419.2L464.4,419.2z M435.7,353.9
	c-6.9,3.4-15.2,0.6-18.6-6.2c0,0,0,0,0,0c-1.7-3.3-2-7.1-0.8-10.6c1.2-3.5,3.7-6.4,7-8.1l68.4-34.1c6.7-3.5,15-0.9,18.4,5.8
	c0.1,0.1,0.1,0.3,0.2,0.4c1.7,3.3,1.9,7.1,0.7,10.6c-1.2,3.5-3.7,6.4-7,8L435.7,353.9L435.7,353.9z M267.7,275.4
	c0.6-0.7,1.2-1.3,1.8-1.9c1.9-2.1,4.2-3.9,6.7-5.1l0,0c2.9-1,6.1-1.1,9.1-0.4c10.3,1.6,21.2,9.1,32.4,20.6
	c27.3,28.2,56.1,82,76.7,138.6s32.8,115.6,26.7,153.9c-2.3,14.3-7.2,25.8-15.1,33.4l-0.4,0.3c-3.3,2.4-7.2,4-11.3,4.6
	c-0.4-0.3-0.7-0.6-1.1-0.9c-27.3-19.5-51.5-51.9-71.8-89.9c5.2,1,11.8-2.9,18.2-9.5c31.9-33.6,16.2-92.4-23.6-106
	c-16.2-5.5-32.4-5.5-38.7-2.3l-0.7,0.4C262.1,354.8,258,302.7,267.7,275.4z"/>
</svg>
