<svg width="48" height="48" xmlns="http://www.w3.org/2000/svg" data-name="Layer 1">

 <title>red-alert</title>
 <g>
  <title>Layer 1</title>
  <path stroke="null" style="vector-effect: non-scaling-stroke;" id="svg_1" fill="#b71616" d="m1.04254,36.03496l16.7345,-31.68157l0.06625,-0.11524l0,0a8.93234,9.78232 0 0 1 2.72803,-3.08578a6.62521,7.25565 0 0 1 3.55423,-1.15237a6.53947,7.16175 0 0 1 3.55033,1.1481a8.88168,9.72684 0 0 1 2.72803,3.09859c0.05066,0.08963 0.09743,0.17926 0.1403,0.27315l16.4617,31.30172l0.08964,0.18779l0,0a8.65954,9.48356 0 0 1 0.92363,4.34912a6.85514,7.50746 0 0 1 -0.84179,3.5638a6.23549,6.82884 0 0 1 -2.70464,2.82117l-0.22604,0.11097a8.31659,9.10797 0 0 1 -3.55033,0.74264l0,0l-33.70283,0c-0.08964,0 -0.17148,0 -0.25721,0a7.04221,7.71233 0 0 1 -2.41625,-0.49082a6.41476,7.02517 0 0 1 -3.02421,-2.60777a6.85514,7.50746 0 0 1 -1.16915,-4.08877a8.96352,9.81646 0 0 1 0.61186,-3.73026a3.21128,3.51685 0 0 1 0.30008,-0.64447l0.0039,0z" class="cls-1"/>
  <path stroke="null" style="vector-effect: non-scaling-stroke;" id="svg_2" fill-rule="evenodd" fill="#e21b1b" d="m2.5588,38.10426l17.69735,-33.85491c2.14501,-3.74401 5.54913,-3.83931 7.73926,0l17.40615,33.44648c1.38626,3.09051 0.69723,7.26111 -3.83067,7.15673l-35.47672,0c-2.98169,0.08169 -4.92163,-2.80914 -3.54357,-6.74829l0.0082,0z" class="cls-2"/>
  <path stroke="null" id="svg_3" fill="#fff" d="m22.40699,35.46003a2.6945,2.77371 0 0 1 1.70179,-0.79536a2.81187,2.89452 0 0 1 1.17365,0.17619a2.8461,2.92976 0 0 1 0.97804,0.65945a2.70428,2.78377 0 0 1 0.79221,1.78705a2.95857,3.04554 0 0 1 -0.03912,0.70475a2.70917,2.78881 0 0 1 -2.75808,2.31562a2.77275,2.85425 0 0 1 -1.11008,-0.26177a2.71895,2.79888 0 0 1 -1.37904,-1.47998a2.76297,2.84418 0 0 1 -0.17116,-0.63931a2.85099,2.93479 0 0 1 -0.02934,-0.65945l0,0a3.02704,3.11601 0 0 1 0.27874,-1.00679a2.23482,2.30051 0 0 1 0.55259,-0.7853l0.00978,-0.0151zm3.99041,-5.15476c-0.0978,2.41126 -4.06376,2.4163 -4.15667,0c-0.401,-4.13287 -1.42794,-14.79477 -1.39371,-18.67595c0.03423,-1.19808 0.97804,-1.90787 2.22993,-2.1797a6.27413,6.45856 0 0 1 2.4451,0c1.27634,0.2819 2.27395,1.00679 2.27395,2.23507l0,0.12081l-1.3986,18.49976z" class="cls-3"/>
 </g>
</svg>