<svg width="293" height="512.8" xmlns="http://www.w3.org/2000/svg" clip-rule="evenodd" fill-rule="evenodd" image-rendering="optimizeQuality" text-rendering="geometricPrecision" shape-rendering="geometricPrecision">

 <g>
  <title>Layer 1</title>
  <path fill="#ffffff" id="svg_1" d="m117.26,104.66l0,-70.02l-46.78,0l0,71.11c14.54,-2.37 32.4,-1.09 46.78,-1.09zm19.38,130.9c40.22,32.55 60.48,61.78 10.08,95.74c15.42,-30.32 10.02,-46.94 -1.97,-57.93c-2.01,3.04 -17.41,21.26 -2.16,55.25c-60.64,-41.11 4.55,-72.17 -5.95,-93.06zm-38.27,149.95l0,-2.32l-4.4,0l0,-13.2l20.79,0l0,28.81a59.46,59.46 0 0 1 -21.22,3.88c-9.83,0 -16.59,-2.39 -20.27,-7.16c-1.9,-2.47 -3.22,-5.37 -3.97,-8.71c-0.74,-3.34 -1.12,-7.46 -1.12,-12.38c0,-4.92 0.39,-9.03 1.17,-12.33c0.77,-3.31 2.17,-6.2 4.18,-8.67c3.8,-4.83 11.13,-7.25 22,-7.25c2.24,0 5.16,0.23 8.75,0.69c3.59,0.46 6.23,0.98 7.89,1.56l-2.59,13.19c-4.65,-0.8 -8.87,-1.2 -12.63,-1.2c-3.77,0 -6.41,0.28 -7.94,0.86c-1.52,0.57 -2.28,1.72 -2.28,3.45l0,24.41l5.69,0c2.07,0 3.58,-0.22 4.53,-0.65c0.95,-0.43 1.42,-1.42 1.42,-2.98zm40.24,15.88l-18.2,0l13.97,-53.91l26.66,0l13.97,53.91l-18.2,0l-1.98,-8.54l-14.24,0l-1.98,8.54zm8.62,-37.35l-3.53,15.09l7.93,0l-3.45,-15.09l-0.95,0zm32.14,36.4l2.41,-14.23c5.29,1.32 10.05,1.98 14.28,1.98c4.22,0 7.63,-0.17 10.22,-0.52l0,-4.31l-7.77,-0.69c-7.01,-0.63 -11.83,-2.32 -14.45,-5.05c-2.61,-2.73 -3.92,-6.77 -3.92,-12.12c0,-7.35 1.6,-12.42 4.79,-15.17c3.19,-2.77 8.61,-4.15 16.26,-4.15c7.65,0 14.55,0.72 20.7,2.16l-2.16,13.8c-5.35,-0.86 -9.63,-1.29 -12.85,-1.29c-3.22,0 -5.95,0.14 -8.2,0.43l0,4.22l6.22,0.61c7.53,0.74 12.73,2.54 15.61,5.39c2.87,2.85 4.31,6.8 4.31,11.86c0,3.62 -0.49,6.68 -1.47,9.18c-0.97,2.51 -2.14,4.41 -3.49,5.7s-3.26,2.29 -5.73,2.97c-2.48,0.7 -4.65,1.11 -6.52,1.26c-1.87,0.14 -4.35,0.21 -7.46,0.21c-7.47,0 -14.4,-0.75 -20.78,-2.24zm-179.37,-182.93l293,0l0,202.77c0,20.87 -11.52,39.15 -28.55,48.79l0,28.63c0,8.3 -6.8,15.1 -15.1,15.1l-205.74,0c-8.3,0 -15.11,-6.8 -15.11,-15.1l0,-28.63c-16.99,-9.64 -28.5,-27.92 -28.5,-48.79l0,-202.77zm175.27,-112.85c14.76,0 32.53,-1.35 46.78,1.05l0.01,-71.07l-46.79,0l0,70.02zm62.94,4.64c31.84,11.22 54.79,41.69 54.79,77.24l0,12.02l-293,0l0,-12.02c0,-35.39 22.74,-65.68 54.34,-77.07l-0.01,-74.83l-1.21,0c-9.51,0 -17.32,-7.81 -17.32,-17.32c0,-9.52 7.77,-17.32 17.32,-17.32l186.34,0c9.51,0 17.32,7.8 17.32,17.32c0,9.51 -7.81,17.32 -17.32,17.32l-1.21,0l0,74.66l-0.04,0z"/>
 </g>
</svg>