<?xml version="1.0" encoding="utf-8"?>
<svg fill="#000000" version="1.1" id="Layer_1" viewBox="0 0 514.51 370.196" xmlns="http://www.w3.org/2000/svg">
  <g>
    <g>
      <path d="M 512 215.579 L 512 204.8 C 512 129.02 450.349 67.368 374.568 67.368 L 361.094 67.368 L 361.094 2.695 L 150.905 2.695 L 150.905 67.369 L 137.431 67.369 C 61.651 67.368 0 129.02 0 204.8 L 0 215.579 C 0 268.015 29.524 313.68 72.816 336.842 L 16.168 336.842 L 16.215 353.572 L 495.785 354.199 L 495.832 336.842 L 439.184 336.842 C 482.476 313.68 512 268.015 512 215.579 Z M 167.074 18.863 L 344.927 18.863 L 344.927 67.368 L 167.074 67.368 L 167.074 18.863 Z M 328.879 83.547 L 328.432 336.512 L 199.317 337.184 L 199.411 83.537 L 328.879 83.547 Z M 16.168 215.579 L 16.168 204.8 C 16.168 137.936 70.566 83.537 137.431 83.537 L 199.411 83.537 L 199.317 337.184 L 137.431 336.842 C 70.567 336.842 16.168 282.443 16.168 215.579 Z M 479.663 353.01 L 32.337 353.01 L 479.663 353.01 Z M 374.568 336.842 L 328.426 336.495 L 328.879 83.547 L 374.568 83.537 C 441.432 83.537 495.831 137.936 495.831 204.8 L 495.831 215.579 C 495.832 282.443 441.432 336.842 374.568 336.842 Z" style="fill: rgb(255, 255, 255);"/>
    </g>
  </g>
  <g>
    <g>
      <rect x="191.326" y="35.032" width="123.958" height="16.168" style="fill: rgb(255, 255, 255);"/>
    </g>
  </g>
  <g>
    <g>
      <path d="M69.549,134.351c-17.539,16.478-26.433,40.18-26.433,70.449h16.168c0-25.568,7.144-45.274,21.237-58.573 c22.561-21.291,56.09-19.61,56.425-19.59l0.991-16.138C136.289,110.399,97.3,108.28,69.549,134.351z" style="fill: rgb(255, 255, 255);"/>
    </g>
  </g>
  <g>
    <g/>
  </g>
  <g>
    <g/>
  </g>
  <g>
    <g/>
  </g>
</svg>