<?xml version="1.0" encoding="utf-8"?>
<!-- Generator: Adobe Illustrator 18.1.1, SVG Export Plug-In . SVG Version: 6.00 Build 0)  -->
<svg version="1.1" id="Capa_1" xmlns="http://www.w3.org/2000/svg" xmlns:xlink="http://www.w3.org/1999/xlink" x="0px" y="0px"
	 viewBox="0 310 560 338.7" enable-background="new 0 310 560 338.7" xml:space="preserve">
<g>
	<path fill="#0171CE" d="M0,558.9l0,18.5c0,8.9,8.9,15.9,20.3,15.9h89.8c0,0.5,0,1,0,1.5c0,27.2,22.1,49.3,49.3,49.3
		c26.3,0,47.8-20.7,49.2-46.6c1.4,25.9,22.9,46.6,49.2,46.6c27.2,0,49.3-22.1,49.3-49.3c0-0.5,0-1,0-1.5h105.6c0,0.5,0,1,0,1.5
		c0,27.2,22.1,49.3,49.3,49.3c27.2,0,49.3-22.1,49.3-49.3c0-0.5,0-1,0-1.5h21.9c14.9,0,26.9-12.1,26.9-26.9v-39.8
		c0-21.7-57.2-128.3-63.8-140.3c-5-9.6-11.8-18.6-27.6-18.6h-51.8c-0.1,0-5,0.1-11,0.1h-8.5c-7.8,0-14.5,5.3-16.4,12.8l-0.2,0.7
		v160.5c-0.2,0.7-2.1,1.5-5.3,1.5H20.3C8.9,543,0,550,0,558.9z M438.5,594.7c0-12.9,10.5-23.4,23.4-23.4c12.9,0,23.4,10.5,23.4,23.4
		c0,12.9-10.5,23.4-23.4,23.4C449,618.1,438.5,607.6,438.5,594.7z M412.2,395.4c0.3-0.3,1.3-1.4,4.6-1.4H455c9,0,15.8,0.9,21.8,13.2
		c3.2,6.5,17,40.1,26.1,66.6c1.3,3.8,0.9,5.5,0.6,5.9c-0.2,0.3-1.2,0.8-3.5,0.8h-78.7c-5.9,0-10.8-4.8-10.8-10.8v-50.1
		c0-2.3-0.1-4.7-0.2-7C410,406.2,409.6,398.2,412.2,395.4z M234.4,594.7c0-12.9,10.5-23.4,23.4-23.4c12.9,0,23.4,10.5,23.4,23.4
		c0,12.9-10.5,23.4-23.4,23.4C244.9,618.1,234.4,607.6,234.4,594.7z M136,594.7c0-12.9,10.5-23.4,23.4-23.4
		c12.9,0,23.4,10.5,23.4,23.4c0,12.9-10.5,23.4-23.4,23.4C146.5,618.1,136,607.6,136,594.7z"/>
	<path fill="#0171CE" d="M339.8,497.2C351.6,480,358,457.2,358,433c0-24.2-6.5-47-18.2-64.2c-12.2-17.9-28.7-27.8-46.4-27.8h-13.1
		c2.9-2.6,4.8-6.4,4.8-10.7c0-7.9-6.4-14.3-14.3-14.3h-59.9c-7.9,0-14.3,6.4-14.3,14.3c0,4.2,1.9,8,4.8,10.7h-73.7c0,0,0,0,0,0
		c-0.7,0-4.4,0.1-7.2,3c-1.4,1.4-3,3.8-3,7.7v68.9c0,8-1.5,8.5-13.3,9.2c-3,0.2-4.6,0.3-5.4,0.4c-1-0.2-2.7-0.3-5.7-0.5
		c-1-0.1-2.1-0.1-3-0.2c-2.2-0.1-5-0.2-5.7-0.8c-0.1,0-1.4-1.2-1.4-8v-68.7c0-6.3-4.9-10.3-9.8-10.8l-0.7,0
		c-17.7,0-34.2,9.9-46.4,27.8C14.2,386,7.8,408.8,7.8,433c0,24.2,6.5,47,18.2,64.2c12.2,17.9,28.7,27.8,46.4,27.8h221.1
		C311.1,525.1,327.6,515.2,339.8,497.2z M239,470.2c-15.1,0-27.3-12.3-27.3-27.3c0-10.7,15.4-31.6,27.3-44.9
		c11.9,13.4,27.3,34.3,27.3,44.9C266.3,457.9,254,470.2,239,470.2z"/>
</g>
</svg>
