<?xml version="1.0" encoding="utf-8"?>
<!-- Generator: Adobe Illustrator 26.0.0, SVG Export Plug-In . SVG Version: 6.00 Build 0)  -->
<svg version="1.1" id="Capa_1" xmlns="http://www.w3.org/2000/svg" xmlns:xlink="http://www.w3.org/1999/xlink" x="0px" y="0px"
	 viewBox="0 0 48 48" style="enable-background:new 0 0 48 48;" xml:space="preserve">
<style type="text/css">
	.st0{fill:#008445;}
</style>
<path class="st0" d="M24,24c-2.2,0-3.9-0.7-5.3-2c-1.4-1.3-2-3.1-2.1-5.3c0-2.2,0.7-4,2-5.4s3.1-2.1,5.3-2.1c2.2,0,4,0.7,5.4,2.1
	c1.4,1.4,2.1,3.2,2,5.4c0,2.2-0.7,3.9-2,5.3C28,23.3,26.2,24,24,24z M8.2,39.7v-4.6c0-1.2,0.3-2.3,0.9-3.2c0.6-0.9,1.4-1.6,2.4-2
	c2.2-1,4.3-1.7,6.3-2.2s4-0.8,6.1-0.8s4,0.2,6,0.8s4.1,1.2,6.3,2.2c1,0.5,1.8,1.1,2.5,2c0.6,0.9,1,2,1,3.2v4.5L8.2,39.7z"/>
</svg>
