<svg width="48" height="48" xmlns="http://www.w3.org/2000/svg" xml:space="preserve" version="1.1">

 <g>
  <title>Layer 1</title>
  <path id="svg_1" fill="#0171ce" d="m24,24c-2.2,0 -3.9,-0.7 -5.3,-2c-1.4,-1.3 -2,-3.1 -2.1,-5.3c0,-2.2 0.7,-4 2,-5.4s3.1,-2.1 5.3,-2.1c2.2,0 4,0.7 5.4,2.1c1.4,1.4 2.1,3.2 2,5.4c0,2.2 -0.7,3.9 -2,5.3c-1.3,1.3 -3.1,2 -5.3,2zm-15.8,15.7l0,-4.6c0,-1.2 0.3,-2.3 0.9,-3.2c0.6,-0.9 1.4,-1.6 2.4,-2c2.2,-1 4.3,-1.7 6.3,-2.2s4,-0.8 6.1,-0.8s4,0.2 6,0.8s4.1,1.2 6.3,2.2c1,0.5 1.8,1.1 2.5,2c0.6,0.9 1,2 1,3.2l0,4.5l-31.5,0.1z" class="st0"/>
 </g>
</svg>